<?xml version='1.0' encoding='ASCII' standalone='yes'?>
<svg xmlns="http://www.w3.org/2000/svg" xmlns:xlink="http://www.w3.org/1999/xlink" width="973.5" height="602.7" viewBox="-162.25 -100.45 324.5 200.9">
<defs>
<style type="text/css">
.l36d0 {stroke: #E25822; fill: #E25822; fill-opacity: 0.5;}
.l33d0 {stroke: #882D17; fill: #882D17; fill-opacity: 0.5;}
.l32d0 {stroke: #DCD300; fill: #DCD300; fill-opacity: 0.5;}
.l35d0 {stroke: #654522; fill: #654522; fill-opacity: 0.5;}
.l34d0 {stroke: #8DB600; fill: #8DB600; fill-opacity: 0.5;}
.l204d0 {stroke: #848482; fill: #848482; fill-opacity: 0.5;}
.l12d0 {stroke: #DCD300; fill: #DCD300; fill-opacity: 0.5;}
.l22d0 {stroke: #BE0032; fill: #BE0032; fill-opacity: 0.5;}
.l31d0 {stroke: #B3446C; fill: #B3446C; fill-opacity: 0.5;}
.l30d0 {stroke: #F6A600; fill: #F6A600; fill-opacity: 0.5;}
</style>
</defs>
<rect x="-162.25" y="-100.45" width="324.5" height="200.9" fill="#222222" stroke="none"/>
<g id="Unnamed_49a50584" transform="scale(1 -1)">
<polygon id="0x31faee60" class="l204d0" points="-92.3,-30.5 92.3,-30.5 92.3,30.5 -92.3,30.5"/>
<polygon id="0x32088460" class="l12d0" points="-117.3,-55.5 117.3,-55.5 117.3,55.5 -117.3,55.5"/>
<polygon id="0x320884d0" class="l30d0" points="-27.8,-11.45 -27.8,3.35 -2.8,3.35 -2.8,-11.45"/>
<polygon id="0x32088540" class="l33d0" points="-1.1,-5.15 -1.1,-2.95 1.1,-2.95 1.1,-5.15"/>
<polygon id="0x320885b0" class="l34d0" points="-2.3,-6.35 -2.3,-1.75 2.3,-1.75 2.3,-6.35"/>
<polygon id="0x32088670" class="l34d0" points="-2.3,-9.05 -2.3,0.95 2.3,0.95 2.3,-9.05"/>
<polygon id="0x320886e0" class="l35d0" points="-1.3,-5.35 -1.3,-2.75 1.3,-2.75 1.3,-5.35"/>
<polygon id="0x32088750" class="l36d0" points="-2.5,-6.55 -2.5,-1.55 2.5,-1.55 2.5,-6.55"/>
<polygon id="0x320887c0" class="l34d0" points="-2.5,-6.55 -2.5,-1.55 2.5,-1.55 2.5,-6.55"/>
<polygon id="0x32088920" class="l36d0" points="-2.5,-9.05 -2.5,0.95 2.5,0.95 2.5,-9.05"/>
<polygon id="0x320889f0" class="l34d0" points="-2.5,-6.55 -2.5,-1.55 2.5,-1.55 2.5,-6.55"/>
<polygon id="0x32088ac0" class="l30d0" points="2.8,-11.45 2.8,3.35 27.8,3.35 27.8,-11.45"/>
<polygon id="0x32088b90" class="l33d0" points="29.5,-5.15 29.5,-2.95 31.7,-2.95 31.7,-5.15"/>
<polygon id="0x32088c60" class="l34d0" points="28.3,-6.35 28.3,-1.75 32.9,-1.75 32.9,-6.35"/>
<polygon id="0x32088d30" class="l34d0" points="28.3,-9.05 28.3,0.95 32.9,0.95 32.9,-9.05"/>
<polygon id="0x32088e00" class="l35d0" points="29.3,-5.35 29.3,-2.75 31.9,-2.75 31.9,-5.35"/>
<polygon id="0x32088ed0" class="l36d0" points="28.1,-6.55 28.1,-1.55 33.1,-1.55 33.1,-6.55"/>
<polygon id="0x32089050" class="l34d0" points="28.1,-6.55 28.1,-1.55 33.1,-1.55 33.1,-6.55"/>
<polygon id="0x32089120" class="l36d0" points="28.1,-9.05 28.1,0.95 33.1,0.95 33.1,-9.05"/>
<polygon id="0x320891f0" class="l34d0" points="28.1,-6.55 28.1,-1.55 33.1,-1.55 33.1,-6.55"/>
<polygon id="0x320892c0" class="l33d0" points="-31.7,-5.15 -31.7,-2.95 -29.5,-2.95 -29.5,-5.15"/>
<polygon id="0x32089390" class="l34d0" points="-32.9,-6.35 -32.9,-1.75 -28.3,-1.75 -28.3,-6.35"/>
<polygon id="0x32089460" class="l34d0" points="-32.9,-9.05 -32.9,0.95 -28.3,0.95 -28.3,-9.05"/>
<polygon id="0x32089530" class="l35d0" points="-31.9,-5.35 -31.9,-2.75 -29.3,-2.75 -29.3,-5.35"/>
<polygon id="0x32089600" class="l36d0" points="-33.1,-6.55 -33.1,-1.55 -28.1,-1.55 -28.1,-6.55"/>
<polygon id="0x320896d0" class="l34d0" points="-33.1,-6.55 -33.1,-1.55 -28.1,-1.55 -28.1,-6.55"/>
<polygon id="0x320897a0" class="l36d0" points="-33.1,-9.05 -33.1,0.95 -28.1,0.95 -28.1,-9.05"/>
<polygon id="0x32089870" class="l34d0" points="-33.1,-6.55 -33.1,-1.55 -28.1,-1.55 -28.1,-6.55"/>
<polygon id="0x32089940" class="l32d0" points="-36.1,-11.35 -36.1,3.25 36.1,3.25 36.1,-11.35"/>
<polygon id="0x32089a10" class="l22d0" points="-33.8,-9.05 -33.8,0.95 33.8,0.95 33.8,-9.05"/>
<polygon id="0x32089ae0" class="l35d0" points="-31.9,7.65 -31.9,10.25 -29.3,10.25 -29.3,7.65"/>
<polygon id="0x32089bb0" class="l36d0" points="-33.1,6.45 -33.1,11.45 -28.1,11.45 -28.1,6.45"/>
<polygon id="0x32089c80" class="l34d0" points="-33.1,6.45 -33.1,11.45 -28.1,11.45 -28.1,6.45"/>
<polygon id="0x32088fa0" class="l30d0" points="48.2,-11.45 48.2,3.35 73.2,3.35 73.2,-11.45"/>
<polygon id="0x32089f60" class="l33d0" points="74.9,-5.15 74.9,-2.95 77.1,-2.95 77.1,-5.15"/>
<polygon id="0x3208a030" class="l34d0" points="73.7,-6.35 73.7,-1.75 78.3,-1.75 78.3,-6.35"/>
<polygon id="0x3208a100" class="l34d0" points="73.7,-9.05 73.7,0.95 78.3,0.95 78.3,-9.05"/>
<polygon id="0x3208a1d0" class="l33d0" points="44.3,-5.15 44.3,-2.95 46.5,-2.95 46.5,-5.15"/>
<polygon id="0x3208a2a0" class="l34d0" points="43.1,-6.35 43.1,-1.75 47.7,-1.75 47.7,-6.35"/>
<polygon id="0x3208a370" class="l34d0" points="43.1,-9.05 43.1,0.95 47.7,0.95 47.7,-9.05"/>
<polygon id="0x3208a440" class="l32d0" points="40.1,-11.35 40.1,3.25 81.3,3.25 81.3,-11.35"/>
<polygon id="0x3208a510" class="l22d0" points="42.4,-9.05 42.4,0.95 79,0.95 79,-9.05"/>
<polygon id="0x3208a5e0" class="l33d0" points="59.6,-14.85 59.6,-12.65 61.8,-12.65 61.8,-14.85"/>
<polygon id="0x3208a6b0" class="l30d0" points="58.4,-16.05 58.4,-11.45 63,-11.45 63,-16.05"/>
<polygon id="0x3208a780" class="l34d0" points="58.4,-16.05 58.4,-11.45 63,-11.45 63,-16.05"/>
<polygon id="0x3208a850" class="l30d0" points="58.9,-15.55 58.9,-11.95 62.5,-11.95 62.5,-15.55"/>
<polygon id="0x3208a920" class="l34d0" points="43.1,-16.05 58.4,-16.05 58.4,-11.45 43.1,-11.45"/>
<polygon id="0x3208a9f0" class="l34d0" points="43.1,-16.05 47.7,-16.05 47.7,-9.05 43.1,-9.05"/>
<polygon id="0x3208aac0" class="l34d0" points="63,-16.05 78.3,-16.05 78.3,-11.45 63,-11.45"/>
<polygon id="0x3208ab90" class="l34d0" points="73.7,-16.05 78.3,-16.05 78.3,-9.05 73.7,-9.05"/>
<polygon id="0x3208ac60" class="l30d0" points="-73.2,-11.45 -73.2,3.35 -48.2,3.35 -48.2,-11.45"/>
<polygon id="0x3208ad30" class="l33d0" points="-46.5,-5.15 -46.5,-2.95 -44.3,-2.95 -44.3,-5.15"/>
<polygon id="0x3208ae00" class="l34d0" points="-47.7,-6.35 -47.7,-1.75 -43.1,-1.75 -43.1,-6.35"/>
<polygon id="0x3208aed0" class="l34d0" points="-47.7,-9.05 -47.7,0.95 -43.1,0.95 -43.1,-9.05"/>
<polygon id="0x3208afa0" class="l33d0" points="-77.1,-5.15 -77.1,-2.95 -74.9,-2.95 -74.9,-5.15"/>
<polygon id="0x3208b070" class="l34d0" points="-78.3,-6.35 -78.3,-1.75 -73.7,-1.75 -73.7,-6.35"/>
<polygon id="0x3208b140" class="l34d0" points="-78.3,-9.05 -78.3,0.95 -73.7,0.95 -73.7,-9.05"/>
<polygon id="0x3208b210" class="l32d0" points="-81.3,-11.35 -81.3,3.25 -40.1,3.25 -40.1,-11.35"/>
<polygon id="0x3208b2e0" class="l22d0" points="-79,-9.05 -79,0.95 -42.4,0.95 -42.4,-9.05"/>
<polygon id="0x3208b3b0" class="l33d0" points="-61.8,-14.85 -61.8,-12.65 -59.6,-12.65 -59.6,-14.85"/>
<polygon id="0x3208b480" class="l30d0" points="-63,-16.05 -63,-11.45 -58.4,-11.45 -58.4,-16.05"/>
<polygon id="0x3208b550" class="l34d0" points="-63,-16.05 -63,-11.45 -58.4,-11.45 -58.4,-16.05"/>
<polygon id="0x3208b620" class="l30d0" points="-62.5,-15.55 -62.5,-11.95 -58.9,-11.95 -58.9,-15.55"/>
<polygon id="0x3208b6f0" class="l34d0" points="-78.3,-16.05 -63,-16.05 -63,-11.45 -78.3,-11.45"/>
<polygon id="0x3208b7c0" class="l34d0" points="-78.3,-16.05 -73.7,-16.05 -73.7,-9.05 -78.3,-9.05"/>
<polygon id="0x3208bca0" class="l34d0" points="-58.4,-16.05 -43.1,-16.05 -43.1,-11.45 -58.4,-11.45"/>
<polygon id="0x3208bd70" class="l34d0" points="-47.7,-16.05 -43.1,-16.05 -43.1,-9.05 -47.7,-9.05"/>
<polygon id="0x3208be40" class="l36d0" points="-33.1,14.45 -33.1,19.45 33.1,19.45 33.1,14.45"/>
<polygon id="0x3208bf10" class="l36d0" points="-33.1,6.45 -33.1,11.45 33.1,11.45 33.1,6.45"/>
<polygon id="0x3208bfe0" class="l33d0" points="-21.1,-18.05 -21.1,-15.85 -18.9,-15.85 -18.9,-18.05"/>
<polygon id="0x3208c0b0" class="l36d0" points="-22.5,-19.45 -22.5,-14.45 -17.5,-14.45 -17.5,-19.45"/>
<polygon id="0x3208c180" class="l34d0" points="-22.5,-19.45 -22.5,-14.45 -17.5,-14.45 -17.5,-19.45"/>
<polygon id="0x3208c250" class="l35d0" points="-21.3,-18.25 -21.3,-15.65 -18.7,-15.65 -18.7,-18.25"/>
<polygon id="0x3208c320" class="l30d0" points="-21.8,-18.75 -21.8,-15.15 -18.2,-15.15 -18.2,-18.75"/>
<polygon id="0x3208c3f0" class="l33d0" points="18.9,-18.05 18.9,-15.85 21.1,-15.85 21.1,-18.05"/>
<polygon id="0x3208c4c0" class="l36d0" points="17.5,-19.45 17.5,-14.45 22.5,-14.45 22.5,-19.45"/>
<polygon id="0x3208c590" class="l34d0" points="17.5,-19.45 17.5,-14.45 22.5,-14.45 22.5,-19.45"/>
<polygon id="0x3208c660" class="l35d0" points="18.7,-18.25 18.7,-15.65 21.3,-15.65 21.3,-18.25"/>
<polygon id="0x3208c730" class="l30d0" points="18.2,-18.75 18.2,-15.15 21.8,-15.15 21.8,-18.75"/>
<polygon id="0x3208c800" class="l33d0" points="10.9,-18.05 10.9,-15.85 13.1,-15.85 13.1,-18.05"/>
<polygon id="0x3208c8d0" class="l36d0" points="9.5,-19.45 9.5,-14.45 14.5,-14.45 14.5,-19.45"/>
<polygon id="0x3208c9a0" class="l34d0" points="9.5,-19.45 9.5,-14.45 14.5,-14.45 14.5,-19.45"/>
<polygon id="0x3208ca70" class="l35d0" points="10.7,-18.25 10.7,-15.65 13.3,-15.65 13.3,-18.25"/>
<polygon id="0x3208cb40" class="l30d0" points="10.2,-18.75 10.2,-15.15 13.8,-15.15 13.8,-18.75"/>
<polygon id="0x3208cc10" class="l33d0" points="2.9,-18.05 2.9,-15.85 5.1,-15.85 5.1,-18.05"/>
<polygon id="0x3208cce0" class="l36d0" points="1.5,-19.45 1.5,-14.45 6.5,-14.45 6.5,-19.45"/>
<polygon id="0x3208cdb0" class="l34d0" points="1.5,-19.45 1.5,-14.45 6.5,-14.45 6.5,-19.45"/>
<polygon id="0x3208ce80" class="l35d0" points="2.7,-18.25 2.7,-15.65 5.3,-15.65 5.3,-18.25"/>
<polygon id="0x3208cf50" class="l30d0" points="2.2,-18.75 2.2,-15.15 5.8,-15.15 5.8,-18.75"/>
<polygon id="0x3208d020" class="l33d0" points="-5.1,-18.05 -5.1,-15.85 -2.9,-15.85 -2.9,-18.05"/>
<polygon id="0x3208d0f0" class="l36d0" points="-6.5,-19.45 -6.5,-14.45 -1.5,-14.45 -1.5,-19.45"/>
<polygon id="0x3208d1c0" class="l34d0" points="-6.5,-19.45 -6.5,-14.45 -1.5,-14.45 -1.5,-19.45"/>
<polygon id="0x3208d290" class="l35d0" points="-5.3,-18.25 -5.3,-15.65 -2.7,-15.65 -2.7,-18.25"/>
<polygon id="0x3208d360" class="l30d0" points="-5.8,-18.75 -5.8,-15.15 -2.2,-15.15 -2.2,-18.75"/>
<polygon id="0x3208d430" class="l33d0" points="-13.1,-18.05 -13.1,-15.85 -10.9,-15.85 -10.9,-18.05"/>
<polygon id="0x3208d500" class="l36d0" points="-14.5,-19.45 -14.5,-14.45 -9.5,-14.45 -9.5,-19.45"/>
<polygon id="0x3208d5d0" class="l34d0" points="-14.5,-19.45 -14.5,-14.45 -9.5,-14.45 -9.5,-19.45"/>
<polygon id="0x3208d6a0" class="l35d0" points="-13.3,-18.25 -13.3,-15.65 -10.7,-15.65 -10.7,-18.25"/>
<polygon id="0x3208d770" class="l30d0" points="-13.8,-18.75 -13.8,-15.15 -10.2,-15.15 -10.2,-18.75"/>
<polygon id="0x3208d840" class="l36d0" points="-27.8,-19.45 -27.8,-14.45 27.8,-14.45 27.8,-19.45"/>
<polygon id="0x3208d910" class="l30d0" points="-27.8,-19.45 -27.8,-14.45 27.8,-14.45 27.8,-19.45"/>
<polygon id="0x3208d9e0" class="l34d0" points="28.3,0.95 32.9,0.95 32.9,11.45 28.3,11.45"/>
<polygon id="0x3208dab0" class="l35d0" points="29.3,7.65 29.3,10.25 31.9,10.25 31.9,7.65"/>
<polygon id="0x3208db80" class="l36d0" points="28.1,6.45 28.1,11.45 33.1,11.45 33.1,6.45"/>
<polygon id="0x3208dc50" class="l34d0" points="28.1,6.45 28.1,11.45 33.1,11.45 33.1,6.45"/>
<polygon id="0x3208dd20" class="l30d0" points="2.8,-14.45 27.8,-14.45 27.8,-11.45 2.8,-11.45"/>
<polygon id="0x3208ddf0" class="l34d0" points="-2.3,0.95 2.3,0.95 2.3,19.45 -2.3,19.45"/>
<polygon id="0x3208dec0" class="l35d0" points="-1.3,15.65 -1.3,18.25 1.3,18.25 1.3,15.65"/>
<polygon id="0x3208df90" class="l36d0" points="-2.5,14.45 -2.5,19.45 2.5,19.45 2.5,14.45"/>
<polygon id="0x3208e060" class="l34d0" points="-2.5,14.45 -2.5,19.45 2.5,19.45 2.5,14.45"/>
<polygon id="0x3208e130" class="l30d0" points="-27.8,-14.45 -2.8,-14.45 -2.8,-11.45 -27.8,-11.45"/>
<polygon id="0x3208e200" class="l34d0" points="-32.9,0.95 -28.3,0.95 -28.3,11.45 -32.9,11.45"/>
<polygon id="0x3208e2d0" class="l22d0" points="145.9,84.1 -145.9,84.1 -145.9,-80.5 -142.3,-80.5 -142.3,80.5 142.3,80.5 142.3,-80.5 -142.3,-80.5 -145.9,-80.5 -145.9,-84.1 145.9,-84.1"/>
<polygon id="0x3208e340" class="l36d0" points="142.3,-84.8 146.4,-84.8 146.4,-79.8 142.3,-79.8"/>
<polygon id="0x3208e410" class="l35d0" points="142.6,-83.6 142.6,-81 145.2,-81 145.2,-83.6"/>
<polygon id="0x3208e4e0" class="l36d0" points="141.4,-84.8 141.4,-79.8 146.4,-79.8 146.4,-84.8"/>
<polygon id="0x3208e5b0" class="l34d0" points="141.4,-84.8 141.4,-79.8 146.4,-79.8 146.4,-84.8"/>
<polygon id="0x3208e680" class="l36d0" points="141.4,-84.8 141.4,-79.8 146.4,-79.8 146.4,-84.8"/>
<polygon id="0x3208e750" class="l34d0" points="141.4,-84.8 141.4,-79.8 146.4,-79.8 146.4,-84.8"/>
<polygon id="0x3208e820" class="l34d0" points="141.8,-84.8 146.4,-84.8 146.4,-80.5 141.8,-80.5"/>
<polygon id="0x3208e8f0" class="l36d0" points="-146.4,-84.8 -142.3,-84.8 -142.3,-79.8 -146.4,-79.8"/>
<polygon id="0x3208e9c0" class="l35d0" points="-145.2,-83.6 -145.2,-81 -142.6,-81 -142.6,-83.6"/>
<polygon id="0x3208ea90" class="l36d0" points="-146.4,-84.8 -146.4,-79.8 -141.4,-79.8 -141.4,-84.8"/>
<polygon id="0x321987a0" class="l34d0" points="-146.4,-84.8 -146.4,-79.8 -141.4,-79.8 -141.4,-84.8"/>
<polygon id="0x32198870" class="l36d0" points="-146.4,-84.8 -146.4,-79.8 -141.4,-79.8 -141.4,-84.8"/>
<polygon id="0x32198940" class="l34d0" points="-146.4,-84.8 -146.4,-79.8 -141.4,-79.8 -141.4,-84.8"/>
<polygon id="0x32198a10" class="l34d0" points="-146.4,-84.8 -141.8,-84.8 -141.8,-80.5 -146.4,-80.5"/>
<polygon id="0x32198ae0" class="l36d0" points="142.3,79.8 146.4,79.8 146.4,84.8 142.3,84.8"/>
<polygon id="0x32198bb0" class="l35d0" points="142.6,81 142.6,83.6 145.2,83.6 145.2,81"/>
<polygon id="0x3208b890" class="l36d0" points="141.4,79.8 141.4,84.8 146.4,84.8 146.4,79.8"/>
<polygon id="0x3208b960" class="l34d0" points="141.4,79.8 141.4,84.8 146.4,84.8 146.4,79.8"/>
<polygon id="0x3208ba30" class="l36d0" points="141.4,79.8 141.4,84.8 146.4,84.8 146.4,79.8"/>
<polygon id="0x3208bb00" class="l34d0" points="141.4,79.8 141.4,84.8 146.4,84.8 146.4,79.8"/>
<polygon id="0x3208bbd0" class="l34d0" points="141.8,80.5 146.4,80.5 146.4,84.8 141.8,84.8"/>
<polygon id="0x32199490" class="l36d0" points="-146.4,79.8 -142.3,79.8 -142.3,84.8 -146.4,84.8"/>
<polygon id="0x32199560" class="l35d0" points="-145.2,81 -145.2,83.6 -142.6,83.6 -142.6,81"/>
<polygon id="0x32199630" class="l36d0" points="-146.4,79.8 -146.4,84.8 -141.4,84.8 -141.4,79.8"/>
<polygon id="0x32199700" class="l34d0" points="-146.4,79.8 -146.4,84.8 -141.4,84.8 -141.4,79.8"/>
<polygon id="0x321997d0" class="l36d0" points="-146.4,79.8 -146.4,84.8 -141.4,84.8 -141.4,79.8"/>
<polygon id="0x321998a0" class="l34d0" points="-146.4,79.8 -146.4,84.8 -141.4,84.8 -141.4,79.8"/>
<polygon id="0x32199970" class="l34d0" points="-146.4,80.5 -141.8,80.5 -141.8,84.8 -146.4,84.8"/>
<polygon id="0x32199a40" class="l33d0" points="-145.2,-76.1 -145.2,-73.9 -143,-73.9 -143,-76.1"/>
<polygon id="0x32199b10" class="l34d0" points="-146.4,-77.3 -146.4,-72.7 -141.8,-72.7 -141.8,-77.3"/>
<polygon id="0x32199be0" class="l22d0" points="-145.9,-76.8 -145.9,-73.2 -142.3,-73.2 -142.3,-76.8"/>
<polygon id="0x32199cb0" class="l33d0" points="-145.2,73.9 -145.2,76.1 -143,76.1 -143,73.9"/>
<polygon id="0x32199d80" class="l34d0" points="-146.4,72.7 -146.4,77.3 -141.8,77.3 -141.8,72.7"/>
<polygon id="0x32199e50" class="l22d0" points="-145.9,73.2 -145.9,76.8 -142.3,76.8 -142.3,73.2"/>
<polygon id="0x32199f20" class="l33d0" points="-145.2,68.9 -145.2,71.1 -143,71.1 -143,68.9"/>
<polygon id="0x32199ff0" class="l34d0" points="-146.4,67.7 -146.4,72.3 -141.8,72.3 -141.8,67.7"/>
<polygon id="0x3219a0c0" class="l22d0" points="-145.9,68.2 -145.9,71.8 -142.3,71.8 -142.3,68.2"/>
<polygon id="0x3219a190" class="l33d0" points="-145.2,63.9 -145.2,66.1 -143,66.1 -143,63.9"/>
<polygon id="0x3219a260" class="l34d0" points="-146.4,62.7 -146.4,67.3 -141.8,67.3 -141.8,62.7"/>
<polygon id="0x3219a330" class="l22d0" points="-145.9,63.2 -145.9,66.8 -142.3,66.8 -142.3,63.2"/>
<polygon id="0x3219a400" class="l33d0" points="-145.2,58.9 -145.2,61.1 -143,61.1 -143,58.9"/>
<polygon id="0x3219a4d0" class="l34d0" points="-146.4,57.7 -146.4,62.3 -141.8,62.3 -141.8,57.7"/>
<polygon id="0x3219a5a0" class="l22d0" points="-145.9,58.2 -145.9,61.8 -142.3,61.8 -142.3,58.2"/>
<polygon id="0x3219a670" class="l33d0" points="-145.2,53.9 -145.2,56.1 -143,56.1 -143,53.9"/>
<polygon id="0x3219a740" class="l34d0" points="-146.4,52.7 -146.4,57.3 -141.8,57.3 -141.8,52.7"/>
<polygon id="0x3219a810" class="l22d0" points="-145.9,53.2 -145.9,56.8 -142.3,56.8 -142.3,53.2"/>
<polygon id="0x3219a8e0" class="l33d0" points="-145.2,48.9 -145.2,51.1 -143,51.1 -143,48.9"/>
<polygon id="0x3219a9b0" class="l34d0" points="-146.4,47.7 -146.4,52.3 -141.8,52.3 -141.8,47.7"/>
<polygon id="0x3219aa80" class="l22d0" points="-145.9,48.2 -145.9,51.8 -142.3,51.8 -142.3,48.2"/>
<polygon id="0x3219ab50" class="l33d0" points="-145.2,43.9 -145.2,46.1 -143,46.1 -143,43.9"/>
<polygon id="0x3219ac20" class="l34d0" points="-146.4,42.7 -146.4,47.3 -141.8,47.3 -141.8,42.7"/>
<polygon id="0x3219acf0" class="l22d0" points="-145.9,43.2 -145.9,46.8 -142.3,46.8 -142.3,43.2"/>
<polygon id="0x3219adc0" class="l33d0" points="-145.2,38.9 -145.2,41.1 -143,41.1 -143,38.9"/>
<polygon id="0x3219ae90" class="l34d0" points="-146.4,37.7 -146.4,42.3 -141.8,42.3 -141.8,37.7"/>
<polygon id="0x3219af60" class="l22d0" points="-145.9,38.2 -145.9,41.8 -142.3,41.8 -142.3,38.2"/>
<polygon id="0x3219b030" class="l33d0" points="-145.2,33.9 -145.2,36.1 -143,36.1 -143,33.9"/>
<polygon id="0x3219b100" class="l34d0" points="-146.4,32.7 -146.4,37.3 -141.8,37.3 -141.8,32.7"/>
<polygon id="0x3219b1d0" class="l22d0" points="-145.9,33.2 -145.9,36.8 -142.3,36.8 -142.3,33.2"/>
<polygon id="0x3219b2a0" class="l33d0" points="-145.2,28.9 -145.2,31.1 -143,31.1 -143,28.9"/>
<polygon id="0x3219b370" class="l34d0" points="-146.4,27.7 -146.4,32.3 -141.8,32.3 -141.8,27.7"/>
<polygon id="0x3219b440" class="l22d0" points="-145.9,28.2 -145.9,31.8 -142.3,31.8 -142.3,28.2"/>
<polygon id="0x3219b510" class="l33d0" points="-145.2,23.9 -145.2,26.1 -143,26.1 -143,23.9"/>
<polygon id="0x3219b5e0" class="l34d0" points="-146.4,22.7 -146.4,27.3 -141.8,27.3 -141.8,22.7"/>
<polygon id="0x3219b6b0" class="l22d0" points="-145.9,23.2 -145.9,26.8 -142.3,26.8 -142.3,23.2"/>
<polygon id="0x3219b780" class="l33d0" points="-145.2,18.9 -145.2,21.1 -143,21.1 -143,18.9"/>
<polygon id="0x3219b850" class="l34d0" points="-146.4,17.7 -146.4,22.3 -141.8,22.3 -141.8,17.7"/>
<polygon id="0x3219b920" class="l22d0" points="-145.9,18.2 -145.9,21.8 -142.3,21.8 -142.3,18.2"/>
<polygon id="0x3219b9f0" class="l33d0" points="-145.2,13.9 -145.2,16.1 -143,16.1 -143,13.9"/>
<polygon id="0x3219bac0" class="l34d0" points="-146.4,12.7 -146.4,17.3 -141.8,17.3 -141.8,12.7"/>
<polygon id="0x3219bb90" class="l22d0" points="-145.9,13.2 -145.9,16.8 -142.3,16.8 -142.3,13.2"/>
<polygon id="0x3219bc60" class="l33d0" points="-145.2,8.9 -145.2,11.1 -143,11.1 -143,8.9"/>
<polygon id="0x3219bd30" class="l34d0" points="-146.4,7.7 -146.4,12.3 -141.8,12.3 -141.8,7.7"/>
<polygon id="0x3219be00" class="l22d0" points="-145.9,8.2 -145.9,11.8 -142.3,11.8 -142.3,8.2"/>
<polygon id="0x3219bed0" class="l33d0" points="-145.2,3.9 -145.2,6.1 -143,6.1 -143,3.9"/>
<polygon id="0x3219bfa0" class="l34d0" points="-146.4,2.7 -146.4,7.3 -141.8,7.3 -141.8,2.7"/>
<polygon id="0x3219c070" class="l22d0" points="-145.9,3.2 -145.9,6.8 -142.3,6.8 -142.3,3.2"/>
<polygon id="0x3219c140" class="l33d0" points="-145.2,-1.1 -145.2,1.1 -143,1.1 -143,-1.1"/>
<polygon id="0x3219c210" class="l34d0" points="-146.4,-2.3 -146.4,2.3 -141.8,2.3 -141.8,-2.3"/>
<polygon id="0x3219c2e0" class="l22d0" points="-145.9,-1.8 -145.9,1.8 -142.3,1.8 -142.3,-1.8"/>
<polygon id="0x3219c3b0" class="l33d0" points="-145.2,-6.1 -145.2,-3.9 -143,-3.9 -143,-6.1"/>
<polygon id="0x3219c480" class="l34d0" points="-146.4,-7.3 -146.4,-2.7 -141.8,-2.7 -141.8,-7.3"/>
<polygon id="0x3219c550" class="l22d0" points="-145.9,-6.8 -145.9,-3.2 -142.3,-3.2 -142.3,-6.8"/>
<polygon id="0x3219c620" class="l33d0" points="-145.2,-11.1 -145.2,-8.9 -143,-8.9 -143,-11.1"/>
<polygon id="0x3219c6f0" class="l34d0" points="-146.4,-12.3 -146.4,-7.7 -141.8,-7.7 -141.8,-12.3"/>
<polygon id="0x3219c7c0" class="l22d0" points="-145.9,-11.8 -145.9,-8.2 -142.3,-8.2 -142.3,-11.8"/>
<polygon id="0x3219c890" class="l33d0" points="-145.2,-16.1 -145.2,-13.9 -143,-13.9 -143,-16.1"/>
<polygon id="0x3219c960" class="l34d0" points="-146.4,-17.3 -146.4,-12.7 -141.8,-12.7 -141.8,-17.3"/>
<polygon id="0x3219ca30" class="l22d0" points="-145.9,-16.8 -145.9,-13.2 -142.3,-13.2 -142.3,-16.8"/>
<polygon id="0x3219cb00" class="l33d0" points="-145.2,-21.1 -145.2,-18.9 -143,-18.9 -143,-21.1"/>
<polygon id="0x3219cbd0" class="l34d0" points="-146.4,-22.3 -146.4,-17.7 -141.8,-17.7 -141.8,-22.3"/>
<polygon id="0x3219cca0" class="l22d0" points="-145.9,-21.8 -145.9,-18.2 -142.3,-18.2 -142.3,-21.8"/>
<polygon id="0x3219cd70" class="l33d0" points="-145.2,-26.1 -145.2,-23.9 -143,-23.9 -143,-26.1"/>
<polygon id="0x3219ce40" class="l34d0" points="-146.4,-27.3 -146.4,-22.7 -141.8,-22.7 -141.8,-27.3"/>
<polygon id="0x3219cf10" class="l22d0" points="-145.9,-26.8 -145.9,-23.2 -142.3,-23.2 -142.3,-26.8"/>
<polygon id="0x3219cfe0" class="l33d0" points="-145.2,-31.1 -145.2,-28.9 -143,-28.9 -143,-31.1"/>
<polygon id="0x3219d0b0" class="l34d0" points="-146.4,-32.3 -146.4,-27.7 -141.8,-27.7 -141.8,-32.3"/>
<polygon id="0x3219d180" class="l22d0" points="-145.9,-31.8 -145.9,-28.2 -142.3,-28.2 -142.3,-31.8"/>
<polygon id="0x3219d250" class="l33d0" points="-145.2,-36.1 -145.2,-33.9 -143,-33.9 -143,-36.1"/>
<polygon id="0x3219d320" class="l34d0" points="-146.4,-37.3 -146.4,-32.7 -141.8,-32.7 -141.8,-37.3"/>
<polygon id="0x3219d3f0" class="l22d0" points="-145.9,-36.8 -145.9,-33.2 -142.3,-33.2 -142.3,-36.8"/>
<polygon id="0x3219d4c0" class="l33d0" points="-145.2,-41.1 -145.2,-38.9 -143,-38.9 -143,-41.1"/>
<polygon id="0x3219d590" class="l34d0" points="-146.4,-42.3 -146.4,-37.7 -141.8,-37.7 -141.8,-42.3"/>
<polygon id="0x3219d660" class="l22d0" points="-145.9,-41.8 -145.9,-38.2 -142.3,-38.2 -142.3,-41.8"/>
<polygon id="0x3219d730" class="l33d0" points="-145.2,-46.1 -145.2,-43.9 -143,-43.9 -143,-46.1"/>
<polygon id="0x3219d800" class="l34d0" points="-146.4,-47.3 -146.4,-42.7 -141.8,-42.7 -141.8,-47.3"/>
<polygon id="0x3219d8d0" class="l22d0" points="-145.9,-46.8 -145.9,-43.2 -142.3,-43.2 -142.3,-46.8"/>
<polygon id="0x3219d9a0" class="l33d0" points="-145.2,-51.1 -145.2,-48.9 -143,-48.9 -143,-51.1"/>
<polygon id="0x3219da70" class="l34d0" points="-146.4,-52.3 -146.4,-47.7 -141.8,-47.7 -141.8,-52.3"/>
<polygon id="0x3219db40" class="l22d0" points="-145.9,-51.8 -145.9,-48.2 -142.3,-48.2 -142.3,-51.8"/>
<polygon id="0x3219dc10" class="l33d0" points="-145.2,-56.1 -145.2,-53.9 -143,-53.9 -143,-56.1"/>
<polygon id="0x3219dce0" class="l34d0" points="-146.4,-57.3 -146.4,-52.7 -141.8,-52.7 -141.8,-57.3"/>
<polygon id="0x3219ddb0" class="l22d0" points="-145.9,-56.8 -145.9,-53.2 -142.3,-53.2 -142.3,-56.8"/>
<polygon id="0x3219de80" class="l33d0" points="-145.2,-61.1 -145.2,-58.9 -143,-58.9 -143,-61.1"/>
<polygon id="0x3219df50" class="l34d0" points="-146.4,-62.3 -146.4,-57.7 -141.8,-57.7 -141.8,-62.3"/>
<polygon id="0x3219e020" class="l22d0" points="-145.9,-61.8 -145.9,-58.2 -142.3,-58.2 -142.3,-61.8"/>
<polygon id="0x3219e0f0" class="l33d0" points="-145.2,-66.1 -145.2,-63.9 -143,-63.9 -143,-66.1"/>
<polygon id="0x3219e1c0" class="l34d0" points="-146.4,-67.3 -146.4,-62.7 -141.8,-62.7 -141.8,-67.3"/>
<polygon id="0x3219e290" class="l22d0" points="-145.9,-66.8 -145.9,-63.2 -142.3,-63.2 -142.3,-66.8"/>
<polygon id="0x3219e360" class="l33d0" points="-145.2,-71.1 -145.2,-68.9 -143,-68.9 -143,-71.1"/>
<polygon id="0x3219e430" class="l34d0" points="-146.4,-72.3 -146.4,-67.7 -141.8,-67.7 -141.8,-72.3"/>
<polygon id="0x3219e500" class="l22d0" points="-145.9,-71.8 -145.9,-68.2 -142.3,-68.2 -142.3,-71.8"/>
<polygon id="0x3219e5d0" class="l34d0" points="-146.4,-80.5 -146.4,80.5 -141.8,80.5 -141.8,-80.5"/>
<polygon id="0x3219e6a0" class="l22d0" points="-145.9,-76.8 -145.9,76.8 -142.3,76.8 -142.3,-76.8"/>
<polygon id="0x3219e770" class="l33d0" points="-133.1,-83.4 -133.1,-81.2 -130.9,-81.2 -130.9,-83.4"/>
<polygon id="0x3219e840" class="l36d0" points="-134.5,-84.8 -134.5,-79.8 -129.5,-79.8 -129.5,-84.8"/>
<polygon id="0x3219e910" class="l34d0" points="-134.5,-84.8 -134.5,-79.8 -129.5,-79.8 -129.5,-84.8"/>
<polygon id="0x3219e9e0" class="l35d0" points="-133.3,-83.6 -133.3,-81 -130.7,-81 -130.7,-83.6"/>
<polygon id="0x3219eab0" class="l22d0" points="-133.8,-84.1 -133.8,-80.5 -130.2,-80.5 -130.2,-84.1"/>
<polygon id="0x3219eb80" class="l33d0" points="130.9,-83.4 130.9,-81.2 133.1,-81.2 133.1,-83.4"/>
<polygon id="0x3219ec50" class="l36d0" points="129.5,-84.8 129.5,-79.8 134.5,-79.8 134.5,-84.8"/>
<polygon id="0x3219ed20" class="l34d0" points="129.5,-84.8 129.5,-79.8 134.5,-79.8 134.5,-84.8"/>
<polygon id="0x3219edf0" class="l35d0" points="130.7,-83.6 130.7,-81 133.3,-81 133.3,-83.6"/>
<polygon id="0x3219eec0" class="l22d0" points="130.2,-84.1 130.2,-80.5 133.8,-80.5 133.8,-84.1"/>
<polygon id="0x3219ef90" class="l33d0" points="122.9,-83.4 122.9,-81.2 125.1,-81.2 125.1,-83.4"/>
<polygon id="0x3219f060" class="l36d0" points="121.5,-84.8 121.5,-79.8 126.5,-79.8 126.5,-84.8"/>
<polygon id="0x3219f130" class="l34d0" points="121.5,-84.8 121.5,-79.8 126.5,-79.8 126.5,-84.8"/>
<polygon id="0x3219f200" class="l35d0" points="122.7,-83.6 122.7,-81 125.3,-81 125.3,-83.6"/>
<polygon id="0x3219f2d0" class="l22d0" points="122.2,-84.1 122.2,-80.5 125.8,-80.5 125.8,-84.1"/>
<polygon id="0x3219f3a0" class="l33d0" points="114.9,-83.4 114.9,-81.2 117.1,-81.2 117.1,-83.4"/>
<polygon id="0x3219f470" class="l36d0" points="113.5,-84.8 113.5,-79.8 118.5,-79.8 118.5,-84.8"/>
<polygon id="0x3219f540" class="l34d0" points="113.5,-84.8 113.5,-79.8 118.5,-79.8 118.5,-84.8"/>
<polygon id="0x3219f610" class="l35d0" points="114.7,-83.6 114.7,-81 117.3,-81 117.3,-83.6"/>
<polygon id="0x3219f6e0" class="l22d0" points="114.2,-84.1 114.2,-80.5 117.8,-80.5 117.8,-84.1"/>
<polygon id="0x3219f7b0" class="l33d0" points="106.9,-83.4 106.9,-81.2 109.1,-81.2 109.1,-83.4"/>
<polygon id="0x32198c80" class="l36d0" points="105.5,-84.8 105.5,-79.8 110.5,-79.8 110.5,-84.8"/>
<polygon id="0x32198d50" class="l34d0" points="105.5,-84.8 105.5,-79.8 110.5,-79.8 110.5,-84.8"/>
<polygon id="0x32198e20" class="l35d0" points="106.7,-83.6 106.7,-81 109.3,-81 109.3,-83.6"/>
<polygon id="0x32198ef0" class="l22d0" points="106.2,-84.1 106.2,-80.5 109.8,-80.5 109.8,-84.1"/>
<polygon id="0x32198fc0" class="l33d0" points="98.9,-83.4 98.9,-81.2 101.1,-81.2 101.1,-83.4"/>
<polygon id="0x32199090" class="l36d0" points="97.5,-84.8 97.5,-79.8 102.5,-79.8 102.5,-84.8"/>
<polygon id="0x32199160" class="l34d0" points="97.5,-84.8 97.5,-79.8 102.5,-79.8 102.5,-84.8"/>
<polygon id="0x32199230" class="l35d0" points="98.7,-83.6 98.7,-81 101.3,-81 101.3,-83.6"/>
<polygon id="0x32199300" class="l22d0" points="98.2,-84.1 98.2,-80.5 101.8,-80.5 101.8,-84.1"/>
<polygon id="0x321a0830" class="l33d0" points="90.9,-83.4 90.9,-81.2 93.1,-81.2 93.1,-83.4"/>
<polygon id="0x321a08a0" class="l36d0" points="89.5,-84.8 89.5,-79.8 94.5,-79.8 94.5,-84.8"/>
<polygon id="0x321a0970" class="l34d0" points="89.5,-84.8 89.5,-79.8 94.5,-79.8 94.5,-84.8"/>
<polygon id="0x321a0a40" class="l35d0" points="90.7,-83.6 90.7,-81 93.3,-81 93.3,-83.6"/>
<polygon id="0x321a0b10" class="l22d0" points="90.2,-84.1 90.2,-80.5 93.8,-80.5 93.8,-84.1"/>
<polygon id="0x321a0be0" class="l33d0" points="82.9,-83.4 82.9,-81.2 85.1,-81.2 85.1,-83.4"/>
<polygon id="0x321a0cb0" class="l36d0" points="81.5,-84.8 81.5,-79.8 86.5,-79.8 86.5,-84.8"/>
<polygon id="0x321a0d80" class="l34d0" points="81.5,-84.8 81.5,-79.8 86.5,-79.8 86.5,-84.8"/>
<polygon id="0x321a0e50" class="l35d0" points="82.7,-83.6 82.7,-81 85.3,-81 85.3,-83.6"/>
<polygon id="0x321a0f20" class="l22d0" points="82.2,-84.1 82.2,-80.5 85.8,-80.5 85.8,-84.1"/>
<polygon id="0x321a0ff0" class="l33d0" points="74.9,-83.4 74.9,-81.2 77.1,-81.2 77.1,-83.4"/>
<polygon id="0x321a10c0" class="l36d0" points="73.5,-84.8 73.5,-79.8 78.5,-79.8 78.5,-84.8"/>
<polygon id="0x321a1190" class="l34d0" points="73.5,-84.8 73.5,-79.8 78.5,-79.8 78.5,-84.8"/>
<polygon id="0x321a1260" class="l35d0" points="74.7,-83.6 74.7,-81 77.3,-81 77.3,-83.6"/>
<polygon id="0x321a1330" class="l22d0" points="74.2,-84.1 74.2,-80.5 77.8,-80.5 77.8,-84.1"/>
<polygon id="0x321a1400" class="l33d0" points="66.9,-83.4 66.9,-81.2 69.1,-81.2 69.1,-83.4"/>
<polygon id="0x321a14d0" class="l36d0" points="65.5,-84.8 65.5,-79.8 70.5,-79.8 70.5,-84.8"/>
<polygon id="0x321a15a0" class="l34d0" points="65.5,-84.8 65.5,-79.8 70.5,-79.8 70.5,-84.8"/>
<polygon id="0x321a1670" class="l35d0" points="66.7,-83.6 66.7,-81 69.3,-81 69.3,-83.6"/>
<polygon id="0x321a1740" class="l22d0" points="66.2,-84.1 66.2,-80.5 69.8,-80.5 69.8,-84.1"/>
<polygon id="0x321a1810" class="l33d0" points="58.9,-83.4 58.9,-81.2 61.1,-81.2 61.1,-83.4"/>
<polygon id="0x321a18e0" class="l36d0" points="57.5,-84.8 57.5,-79.8 62.5,-79.8 62.5,-84.8"/>
<polygon id="0x321a19b0" class="l34d0" points="57.5,-84.8 57.5,-79.8 62.5,-79.8 62.5,-84.8"/>
<polygon id="0x321a1a80" class="l35d0" points="58.7,-83.6 58.7,-81 61.3,-81 61.3,-83.6"/>
<polygon id="0x321a1b50" class="l22d0" points="58.2,-84.1 58.2,-80.5 61.8,-80.5 61.8,-84.1"/>
<polygon id="0x321a1c20" class="l33d0" points="50.9,-83.4 50.9,-81.2 53.1,-81.2 53.1,-83.4"/>
<polygon id="0x321a1cf0" class="l36d0" points="49.5,-84.8 49.5,-79.8 54.5,-79.8 54.5,-84.8"/>
<polygon id="0x321a1dc0" class="l34d0" points="49.5,-84.8 49.5,-79.8 54.5,-79.8 54.5,-84.8"/>
<polygon id="0x321a1e90" class="l35d0" points="50.7,-83.6 50.7,-81 53.3,-81 53.3,-83.6"/>
<polygon id="0x321a1f60" class="l22d0" points="50.2,-84.1 50.2,-80.5 53.8,-80.5 53.8,-84.1"/>
<polygon id="0x321a2030" class="l33d0" points="42.9,-83.4 42.9,-81.2 45.1,-81.2 45.1,-83.4"/>
<polygon id="0x321a2100" class="l36d0" points="41.5,-84.8 41.5,-79.8 46.5,-79.8 46.5,-84.8"/>
<polygon id="0x321a21d0" class="l34d0" points="41.5,-84.8 41.5,-79.8 46.5,-79.8 46.5,-84.8"/>
<polygon id="0x321a22a0" class="l35d0" points="42.7,-83.6 42.7,-81 45.3,-81 45.3,-83.6"/>
<polygon id="0x321a2370" class="l22d0" points="42.2,-84.1 42.2,-80.5 45.8,-80.5 45.8,-84.1"/>
<polygon id="0x321a2440" class="l33d0" points="34.9,-83.4 34.9,-81.2 37.1,-81.2 37.1,-83.4"/>
<polygon id="0x321a2510" class="l36d0" points="33.5,-84.8 33.5,-79.8 38.5,-79.8 38.5,-84.8"/>
<polygon id="0x321a25e0" class="l34d0" points="33.5,-84.8 33.5,-79.8 38.5,-79.8 38.5,-84.8"/>
<polygon id="0x321a26b0" class="l35d0" points="34.7,-83.6 34.7,-81 37.3,-81 37.3,-83.6"/>
<polygon id="0x321a2780" class="l22d0" points="34.2,-84.1 34.2,-80.5 37.8,-80.5 37.8,-84.1"/>
<polygon id="0x321a2850" class="l33d0" points="26.9,-83.4 26.9,-81.2 29.1,-81.2 29.1,-83.4"/>
<polygon id="0x321a2920" class="l36d0" points="25.5,-84.8 25.5,-79.8 30.5,-79.8 30.5,-84.8"/>
<polygon id="0x321a29f0" class="l34d0" points="25.5,-84.8 25.5,-79.8 30.5,-79.8 30.5,-84.8"/>
<polygon id="0x321a2ac0" class="l35d0" points="26.7,-83.6 26.7,-81 29.3,-81 29.3,-83.6"/>
<polygon id="0x321a2b90" class="l22d0" points="26.2,-84.1 26.2,-80.5 29.8,-80.5 29.8,-84.1"/>
<polygon id="0x321a2c60" class="l33d0" points="18.9,-83.4 18.9,-81.2 21.1,-81.2 21.1,-83.4"/>
<polygon id="0x321a2d30" class="l36d0" points="17.5,-84.8 17.5,-79.8 22.5,-79.8 22.5,-84.8"/>
<polygon id="0x321a2e00" class="l34d0" points="17.5,-84.8 17.5,-79.8 22.5,-79.8 22.5,-84.8"/>
<polygon id="0x321a2ed0" class="l35d0" points="18.7,-83.6 18.7,-81 21.3,-81 21.3,-83.6"/>
<polygon id="0x321a2fa0" class="l22d0" points="18.2,-84.1 18.2,-80.5 21.8,-80.5 21.8,-84.1"/>
<polygon id="0x321a3070" class="l33d0" points="10.9,-83.4 10.9,-81.2 13.1,-81.2 13.1,-83.4"/>
<polygon id="0x321a3140" class="l36d0" points="9.5,-84.8 9.5,-79.8 14.5,-79.8 14.5,-84.8"/>
<polygon id="0x321a3210" class="l34d0" points="9.5,-84.8 9.5,-79.8 14.5,-79.8 14.5,-84.8"/>
<polygon id="0x321a32e0" class="l35d0" points="10.7,-83.6 10.7,-81 13.3,-81 13.3,-83.6"/>
<polygon id="0x321a33b0" class="l22d0" points="10.2,-84.1 10.2,-80.5 13.8,-80.5 13.8,-84.1"/>
<polygon id="0x321a3480" class="l33d0" points="2.9,-83.4 2.9,-81.2 5.1,-81.2 5.1,-83.4"/>
<polygon id="0x321a3550" class="l36d0" points="1.5,-84.8 1.5,-79.8 6.5,-79.8 6.5,-84.8"/>
<polygon id="0x321a3620" class="l34d0" points="1.5,-84.8 1.5,-79.8 6.5,-79.8 6.5,-84.8"/>
<polygon id="0x321a36f0" class="l35d0" points="2.7,-83.6 2.7,-81 5.3,-81 5.3,-83.6"/>
<polygon id="0x321a37c0" class="l22d0" points="2.2,-84.1 2.2,-80.5 5.8,-80.5 5.8,-84.1"/>
<polygon id="0x321a3890" class="l33d0" points="-5.1,-83.4 -5.1,-81.2 -2.9,-81.2 -2.9,-83.4"/>
<polygon id="0x321a3960" class="l36d0" points="-6.5,-84.8 -6.5,-79.8 -1.5,-79.8 -1.5,-84.8"/>
<polygon id="0x321a3a30" class="l34d0" points="-6.5,-84.8 -6.5,-79.8 -1.5,-79.8 -1.5,-84.8"/>
<polygon id="0x321a3b00" class="l35d0" points="-5.3,-83.6 -5.3,-81 -2.7,-81 -2.7,-83.6"/>
<polygon id="0x321a3bd0" class="l22d0" points="-5.8,-84.1 -5.8,-80.5 -2.2,-80.5 -2.2,-84.1"/>
<polygon id="0x321a3ca0" class="l33d0" points="-13.1,-83.4 -13.1,-81.2 -10.9,-81.2 -10.9,-83.4"/>
<polygon id="0x321a3d70" class="l36d0" points="-14.5,-84.8 -14.5,-79.8 -9.5,-79.8 -9.5,-84.8"/>
<polygon id="0x321a3e40" class="l34d0" points="-14.5,-84.8 -14.5,-79.8 -9.5,-79.8 -9.5,-84.8"/>
<polygon id="0x321a3f10" class="l35d0" points="-13.3,-83.6 -13.3,-81 -10.7,-81 -10.7,-83.6"/>
<polygon id="0x321a3fe0" class="l22d0" points="-13.8,-84.1 -13.8,-80.5 -10.2,-80.5 -10.2,-84.1"/>
<polygon id="0x321a40b0" class="l33d0" points="-21.1,-83.4 -21.1,-81.2 -18.9,-81.2 -18.9,-83.4"/>
<polygon id="0x321a4180" class="l36d0" points="-22.5,-84.8 -22.5,-79.8 -17.5,-79.8 -17.5,-84.8"/>
<polygon id="0x321a4250" class="l34d0" points="-22.5,-84.8 -22.5,-79.8 -17.5,-79.8 -17.5,-84.8"/>
<polygon id="0x321a4320" class="l35d0" points="-21.3,-83.6 -21.3,-81 -18.7,-81 -18.7,-83.6"/>
<polygon id="0x321a43f0" class="l22d0" points="-21.8,-84.1 -21.8,-80.5 -18.2,-80.5 -18.2,-84.1"/>
<polygon id="0x321a44c0" class="l33d0" points="-29.1,-83.4 -29.1,-81.2 -26.9,-81.2 -26.9,-83.4"/>
<polygon id="0x321a4590" class="l36d0" points="-30.5,-84.8 -30.5,-79.8 -25.5,-79.8 -25.5,-84.8"/>
<polygon id="0x321a4660" class="l34d0" points="-30.5,-84.8 -30.5,-79.8 -25.5,-79.8 -25.5,-84.8"/>
<polygon id="0x321a4730" class="l35d0" points="-29.3,-83.6 -29.3,-81 -26.7,-81 -26.7,-83.6"/>
<polygon id="0x321a4800" class="l22d0" points="-29.8,-84.1 -29.8,-80.5 -26.2,-80.5 -26.2,-84.1"/>
<polygon id="0x321a48d0" class="l33d0" points="-37.1,-83.4 -37.1,-81.2 -34.9,-81.2 -34.9,-83.4"/>
<polygon id="0x321a49a0" class="l36d0" points="-38.5,-84.8 -38.5,-79.8 -33.5,-79.8 -33.5,-84.8"/>
<polygon id="0x321a4a70" class="l34d0" points="-38.5,-84.8 -38.5,-79.8 -33.5,-79.8 -33.5,-84.8"/>
<polygon id="0x321a4b40" class="l35d0" points="-37.3,-83.6 -37.3,-81 -34.7,-81 -34.7,-83.6"/>
<polygon id="0x321a4c10" class="l22d0" points="-37.8,-84.1 -37.8,-80.5 -34.2,-80.5 -34.2,-84.1"/>
<polygon id="0x321a4ce0" class="l33d0" points="-45.1,-83.4 -45.1,-81.2 -42.9,-81.2 -42.9,-83.4"/>
<polygon id="0x321a4db0" class="l36d0" points="-46.5,-84.8 -46.5,-79.8 -41.5,-79.8 -41.5,-84.8"/>
<polygon id="0x321a4e80" class="l34d0" points="-46.5,-84.8 -46.5,-79.8 -41.5,-79.8 -41.5,-84.8"/>
<polygon id="0x321a4f50" class="l35d0" points="-45.3,-83.6 -45.3,-81 -42.7,-81 -42.7,-83.6"/>
<polygon id="0x321a5020" class="l22d0" points="-45.8,-84.1 -45.8,-80.5 -42.2,-80.5 -42.2,-84.1"/>
<polygon id="0x321a50f0" class="l33d0" points="-53.1,-83.4 -53.1,-81.2 -50.9,-81.2 -50.9,-83.4"/>
<polygon id="0x321a51c0" class="l36d0" points="-54.5,-84.8 -54.5,-79.8 -49.5,-79.8 -49.5,-84.8"/>
<polygon id="0x321a5290" class="l34d0" points="-54.5,-84.8 -54.5,-79.8 -49.5,-79.8 -49.5,-84.8"/>
<polygon id="0x321a5360" class="l35d0" points="-53.3,-83.6 -53.3,-81 -50.7,-81 -50.7,-83.6"/>
<polygon id="0x321a5430" class="l22d0" points="-53.8,-84.1 -53.8,-80.5 -50.2,-80.5 -50.2,-84.1"/>
<polygon id="0x321a5500" class="l33d0" points="-61.1,-83.4 -61.1,-81.2 -58.9,-81.2 -58.9,-83.4"/>
<polygon id="0x321a55d0" class="l36d0" points="-62.5,-84.8 -62.5,-79.8 -57.5,-79.8 -57.5,-84.8"/>
<polygon id="0x321a56a0" class="l34d0" points="-62.5,-84.8 -62.5,-79.8 -57.5,-79.8 -57.5,-84.8"/>
<polygon id="0x321a5770" class="l35d0" points="-61.3,-83.6 -61.3,-81 -58.7,-81 -58.7,-83.6"/>
<polygon id="0x321a5840" class="l22d0" points="-61.8,-84.1 -61.8,-80.5 -58.2,-80.5 -58.2,-84.1"/>
<polygon id="0x321a5910" class="l33d0" points="-69.1,-83.4 -69.1,-81.2 -66.9,-81.2 -66.9,-83.4"/>
<polygon id="0x321a59e0" class="l36d0" points="-70.5,-84.8 -70.5,-79.8 -65.5,-79.8 -65.5,-84.8"/>
<polygon id="0x321a5ab0" class="l34d0" points="-70.5,-84.8 -70.5,-79.8 -65.5,-79.8 -65.5,-84.8"/>
<polygon id="0x321a5b80" class="l35d0" points="-69.3,-83.6 -69.3,-81 -66.7,-81 -66.7,-83.6"/>
<polygon id="0x321a5c50" class="l22d0" points="-69.8,-84.1 -69.8,-80.5 -66.2,-80.5 -66.2,-84.1"/>
<polygon id="0x321a5d20" class="l33d0" points="-77.1,-83.4 -77.1,-81.2 -74.9,-81.2 -74.9,-83.4"/>
<polygon id="0x321a5df0" class="l36d0" points="-78.5,-84.8 -78.5,-79.8 -73.5,-79.8 -73.5,-84.8"/>
<polygon id="0x321a5ec0" class="l34d0" points="-78.5,-84.8 -78.5,-79.8 -73.5,-79.8 -73.5,-84.8"/>
<polygon id="0x321a5f90" class="l35d0" points="-77.3,-83.6 -77.3,-81 -74.7,-81 -74.7,-83.6"/>
<polygon id="0x321a6060" class="l22d0" points="-77.8,-84.1 -77.8,-80.5 -74.2,-80.5 -74.2,-84.1"/>
<polygon id="0x321a6130" class="l33d0" points="-85.1,-83.4 -85.1,-81.2 -82.9,-81.2 -82.9,-83.4"/>
<polygon id="0x321a6200" class="l36d0" points="-86.5,-84.8 -86.5,-79.8 -81.5,-79.8 -81.5,-84.8"/>
<polygon id="0x321a62d0" class="l34d0" points="-86.5,-84.8 -86.5,-79.8 -81.5,-79.8 -81.5,-84.8"/>
<polygon id="0x321a63a0" class="l35d0" points="-85.3,-83.6 -85.3,-81 -82.7,-81 -82.7,-83.6"/>
<polygon id="0x321a6470" class="l22d0" points="-85.8,-84.1 -85.8,-80.5 -82.2,-80.5 -82.2,-84.1"/>
<polygon id="0x321a6540" class="l33d0" points="-93.1,-83.4 -93.1,-81.2 -90.9,-81.2 -90.9,-83.4"/>
<polygon id="0x321a6610" class="l36d0" points="-94.5,-84.8 -94.5,-79.8 -89.5,-79.8 -89.5,-84.8"/>
<polygon id="0x321a66e0" class="l34d0" points="-94.5,-84.8 -94.5,-79.8 -89.5,-79.8 -89.5,-84.8"/>
<polygon id="0x321a67b0" class="l35d0" points="-93.3,-83.6 -93.3,-81 -90.7,-81 -90.7,-83.6"/>
<polygon id="0x321a6880" class="l22d0" points="-93.8,-84.1 -93.8,-80.5 -90.2,-80.5 -90.2,-84.1"/>
<polygon id="0x321a6950" class="l33d0" points="-101.1,-83.4 -101.1,-81.2 -98.9,-81.2 -98.9,-83.4"/>
<polygon id="0x321a6a20" class="l36d0" points="-102.5,-84.8 -102.5,-79.8 -97.5,-79.8 -97.5,-84.8"/>
<polygon id="0x321a6af0" class="l34d0" points="-102.5,-84.8 -102.5,-79.8 -97.5,-79.8 -97.5,-84.8"/>
<polygon id="0x321a6bc0" class="l35d0" points="-101.3,-83.6 -101.3,-81 -98.7,-81 -98.7,-83.6"/>
<polygon id="0x321a6c90" class="l22d0" points="-101.8,-84.1 -101.8,-80.5 -98.2,-80.5 -98.2,-84.1"/>
<polygon id="0x321a6d60" class="l33d0" points="-109.1,-83.4 -109.1,-81.2 -106.9,-81.2 -106.9,-83.4"/>
<polygon id="0x321a6e30" class="l36d0" points="-110.5,-84.8 -110.5,-79.8 -105.5,-79.8 -105.5,-84.8"/>
<polygon id="0x321a6f00" class="l34d0" points="-110.5,-84.8 -110.5,-79.8 -105.5,-79.8 -105.5,-84.8"/>
<polygon id="0x321a6fd0" class="l35d0" points="-109.3,-83.6 -109.3,-81 -106.7,-81 -106.7,-83.6"/>
<polygon id="0x321a70a0" class="l22d0" points="-109.8,-84.1 -109.8,-80.5 -106.2,-80.5 -106.2,-84.1"/>
<polygon id="0x321a7170" class="l33d0" points="-117.1,-83.4 -117.1,-81.2 -114.9,-81.2 -114.9,-83.4"/>
<polygon id="0x321a7240" class="l36d0" points="-118.5,-84.8 -118.5,-79.8 -113.5,-79.8 -113.5,-84.8"/>
<polygon id="0x321a7310" class="l34d0" points="-118.5,-84.8 -118.5,-79.8 -113.5,-79.8 -113.5,-84.8"/>
<polygon id="0x321a73e0" class="l35d0" points="-117.3,-83.6 -117.3,-81 -114.7,-81 -114.7,-83.6"/>
<polygon id="0x321a74b0" class="l22d0" points="-117.8,-84.1 -117.8,-80.5 -114.2,-80.5 -114.2,-84.1"/>
<polygon id="0x321a7580" class="l33d0" points="-125.1,-83.4 -125.1,-81.2 -122.9,-81.2 -122.9,-83.4"/>
<polygon id="0x321a7650" class="l36d0" points="-126.5,-84.8 -126.5,-79.8 -121.5,-79.8 -121.5,-84.8"/>
<polygon id="0x321a7720" class="l34d0" points="-126.5,-84.8 -126.5,-79.8 -121.5,-79.8 -121.5,-84.8"/>
<polygon id="0x321a77f0" class="l35d0" points="-125.3,-83.6 -125.3,-81 -122.7,-81 -122.7,-83.6"/>
<polygon id="0x321a78c0" class="l22d0" points="-125.8,-84.1 -125.8,-80.5 -122.2,-80.5 -122.2,-84.1"/>
<polygon id="0x321a7990" class="l34d0" points="-134.5,-84.8 -134.5,-79.8 134.5,-79.8 134.5,-84.8"/>
<polygon id="0x321a7a60" class="l36d0" points="-142.3,-84.8 -142.3,-79.8 142.3,-79.8 142.3,-84.8"/>
<polygon id="0x321a7b30" class="l22d0" points="-133.8,-84.1 -133.8,-80.5 133.8,-80.5 133.8,-84.1"/>
<polygon id="0x321a7c00" class="l33d0" points="143,-76.1 143,-73.9 145.2,-73.9 145.2,-76.1"/>
<polygon id="0x321a7cd0" class="l34d0" points="141.8,-77.3 141.8,-72.7 146.4,-72.7 146.4,-77.3"/>
<polygon id="0x321a7da0" class="l22d0" points="142.3,-76.8 142.3,-73.2 145.9,-73.2 145.9,-76.8"/>
<polygon id="0x321a7e70" class="l33d0" points="143,73.9 143,76.1 145.2,76.1 145.2,73.9"/>
<polygon id="0x321a7f40" class="l34d0" points="141.8,72.7 141.8,77.3 146.4,77.3 146.4,72.7"/>
<polygon id="0x321a8010" class="l22d0" points="142.3,73.2 142.3,76.8 145.9,76.8 145.9,73.2"/>
<polygon id="0x321a80e0" class="l33d0" points="143,68.9 143,71.1 145.2,71.1 145.2,68.9"/>
<polygon id="0x321a81b0" class="l34d0" points="141.8,67.7 141.8,72.3 146.4,72.3 146.4,67.7"/>
<polygon id="0x321a8280" class="l22d0" points="142.3,68.2 142.3,71.8 145.9,71.8 145.9,68.2"/>
<polygon id="0x321a8350" class="l33d0" points="143,63.9 143,66.1 145.2,66.1 145.2,63.9"/>
<polygon id="0x321a8420" class="l34d0" points="141.8,62.7 141.8,67.3 146.4,67.3 146.4,62.7"/>
<polygon id="0x321a84f0" class="l22d0" points="142.3,63.2 142.3,66.8 145.9,66.8 145.9,63.2"/>
<polygon id="0x321a85c0" class="l33d0" points="143,58.9 143,61.1 145.2,61.1 145.2,58.9"/>
<polygon id="0x321a8690" class="l34d0" points="141.8,57.7 141.8,62.3 146.4,62.3 146.4,57.7"/>
<polygon id="0x321a8760" class="l22d0" points="142.3,58.2 142.3,61.8 145.9,61.8 145.9,58.2"/>
<polygon id="0x321a8830" class="l33d0" points="143,53.9 143,56.1 145.2,56.1 145.2,53.9"/>
<polygon id="0x321a8900" class="l34d0" points="141.8,52.7 141.8,57.3 146.4,57.3 146.4,52.7"/>
<polygon id="0x321a89d0" class="l22d0" points="142.3,53.2 142.3,56.8 145.9,56.8 145.9,53.2"/>
<polygon id="0x321a8aa0" class="l33d0" points="143,48.9 143,51.1 145.2,51.1 145.2,48.9"/>
<polygon id="0x321a8b70" class="l34d0" points="141.8,47.7 141.8,52.3 146.4,52.3 146.4,47.7"/>
<polygon id="0x321a8c40" class="l22d0" points="142.3,48.2 142.3,51.8 145.9,51.8 145.9,48.2"/>
<polygon id="0x321a8d10" class="l33d0" points="143,43.9 143,46.1 145.2,46.1 145.2,43.9"/>
<polygon id="0x321a8de0" class="l34d0" points="141.8,42.7 141.8,47.3 146.4,47.3 146.4,42.7"/>
<polygon id="0x321a8eb0" class="l22d0" points="142.3,43.2 142.3,46.8 145.9,46.8 145.9,43.2"/>
<polygon id="0x321a8f80" class="l33d0" points="143,38.9 143,41.1 145.2,41.1 145.2,38.9"/>
<polygon id="0x321a9050" class="l34d0" points="141.8,37.7 141.8,42.3 146.4,42.3 146.4,37.7"/>
<polygon id="0x321a9120" class="l22d0" points="142.3,38.2 142.3,41.8 145.9,41.8 145.9,38.2"/>
<polygon id="0x321a91f0" class="l33d0" points="143,33.9 143,36.1 145.2,36.1 145.2,33.9"/>
<polygon id="0x321a92c0" class="l34d0" points="141.8,32.7 141.8,37.3 146.4,37.3 146.4,32.7"/>
<polygon id="0x321a9390" class="l22d0" points="142.3,33.2 142.3,36.8 145.9,36.8 145.9,33.2"/>
<polygon id="0x321a9460" class="l33d0" points="143,28.9 143,31.1 145.2,31.1 145.2,28.9"/>
<polygon id="0x321a9530" class="l34d0" points="141.8,27.7 141.8,32.3 146.4,32.3 146.4,27.7"/>
<polygon id="0x321a9600" class="l22d0" points="142.3,28.2 142.3,31.8 145.9,31.8 145.9,28.2"/>
<polygon id="0x321a96d0" class="l33d0" points="143,23.9 143,26.1 145.2,26.1 145.2,23.9"/>
<polygon id="0x321a97a0" class="l34d0" points="141.8,22.7 141.8,27.3 146.4,27.3 146.4,22.7"/>
<polygon id="0x321a9870" class="l22d0" points="142.3,23.2 142.3,26.8 145.9,26.8 145.9,23.2"/>
<polygon id="0x321a9940" class="l33d0" points="143,18.9 143,21.1 145.2,21.1 145.2,18.9"/>
<polygon id="0x321a9a10" class="l34d0" points="141.8,17.7 141.8,22.3 146.4,22.3 146.4,17.7"/>
<polygon id="0x321a9ae0" class="l22d0" points="142.3,18.2 142.3,21.8 145.9,21.8 145.9,18.2"/>
<polygon id="0x321a9bb0" class="l33d0" points="143,13.9 143,16.1 145.2,16.1 145.2,13.9"/>
<polygon id="0x321a9c80" class="l34d0" points="141.8,12.7 141.8,17.3 146.4,17.3 146.4,12.7"/>
<polygon id="0x321a9d50" class="l22d0" points="142.3,13.2 142.3,16.8 145.9,16.8 145.9,13.2"/>
<polygon id="0x321a9e20" class="l33d0" points="143,8.9 143,11.1 145.2,11.1 145.2,8.9"/>
<polygon id="0x321a9ef0" class="l34d0" points="141.8,7.7 141.8,12.3 146.4,12.3 146.4,7.7"/>
<polygon id="0x321a9fc0" class="l22d0" points="142.3,8.2 142.3,11.8 145.9,11.8 145.9,8.2"/>
<polygon id="0x321aa090" class="l33d0" points="143,3.9 143,6.1 145.2,6.1 145.2,3.9"/>
<polygon id="0x321aa160" class="l34d0" points="141.8,2.7 141.8,7.3 146.4,7.3 146.4,2.7"/>
<polygon id="0x321aa230" class="l22d0" points="142.3,3.2 142.3,6.8 145.9,6.8 145.9,3.2"/>
<polygon id="0x321aa300" class="l33d0" points="143,-1.1 143,1.1 145.2,1.1 145.2,-1.1"/>
<polygon id="0x321aa3d0" class="l34d0" points="141.8,-2.3 141.8,2.3 146.4,2.3 146.4,-2.3"/>
<polygon id="0x321aa4a0" class="l22d0" points="142.3,-1.8 142.3,1.8 145.9,1.8 145.9,-1.8"/>
<polygon id="0x321aa570" class="l33d0" points="143,-6.1 143,-3.9 145.2,-3.9 145.2,-6.1"/>
<polygon id="0x321aa640" class="l34d0" points="141.8,-7.3 141.8,-2.7 146.4,-2.7 146.4,-7.3"/>
<polygon id="0x321aa710" class="l22d0" points="142.3,-6.8 142.3,-3.2 145.9,-3.2 145.9,-6.8"/>
<polygon id="0x321aa7e0" class="l33d0" points="143,-11.1 143,-8.9 145.2,-8.9 145.2,-11.1"/>
<polygon id="0x321aa8b0" class="l34d0" points="141.8,-12.3 141.8,-7.7 146.4,-7.7 146.4,-12.3"/>
<polygon id="0x321aa980" class="l22d0" points="142.3,-11.8 142.3,-8.2 145.9,-8.2 145.9,-11.8"/>
<polygon id="0x321aaa50" class="l33d0" points="143,-16.1 143,-13.9 145.2,-13.9 145.2,-16.1"/>
<polygon id="0x321aab20" class="l34d0" points="141.8,-17.3 141.8,-12.7 146.4,-12.7 146.4,-17.3"/>
<polygon id="0x321aabf0" class="l22d0" points="142.3,-16.8 142.3,-13.2 145.9,-13.2 145.9,-16.8"/>
<polygon id="0x321aacc0" class="l33d0" points="143,-21.1 143,-18.9 145.2,-18.9 145.2,-21.1"/>
<polygon id="0x321aad90" class="l34d0" points="141.8,-22.3 141.8,-17.7 146.4,-17.7 146.4,-22.3"/>
<polygon id="0x321aae60" class="l22d0" points="142.3,-21.8 142.3,-18.2 145.9,-18.2 145.9,-21.8"/>
<polygon id="0x321aaf30" class="l33d0" points="143,-26.1 143,-23.9 145.2,-23.9 145.2,-26.1"/>
<polygon id="0x321ab000" class="l34d0" points="141.8,-27.3 141.8,-22.7 146.4,-22.7 146.4,-27.3"/>
<polygon id="0x321ab0d0" class="l22d0" points="142.3,-26.8 142.3,-23.2 145.9,-23.2 145.9,-26.8"/>
<polygon id="0x321ab1a0" class="l33d0" points="143,-31.1 143,-28.9 145.2,-28.9 145.2,-31.1"/>
<polygon id="0x321ab270" class="l34d0" points="141.8,-32.3 141.8,-27.7 146.4,-27.7 146.4,-32.3"/>
<polygon id="0x321ab340" class="l22d0" points="142.3,-31.8 142.3,-28.2 145.9,-28.2 145.9,-31.8"/>
<polygon id="0x321ab410" class="l33d0" points="143,-36.1 143,-33.9 145.2,-33.9 145.2,-36.1"/>
<polygon id="0x321ab4e0" class="l34d0" points="141.8,-37.3 141.8,-32.7 146.4,-32.7 146.4,-37.3"/>
<polygon id="0x321ab5b0" class="l22d0" points="142.3,-36.8 142.3,-33.2 145.9,-33.2 145.9,-36.8"/>
<polygon id="0x321ab680" class="l33d0" points="143,-41.1 143,-38.9 145.2,-38.9 145.2,-41.1"/>
<polygon id="0x321ab750" class="l34d0" points="141.8,-42.3 141.8,-37.7 146.4,-37.7 146.4,-42.3"/>
<polygon id="0x321ab820" class="l22d0" points="142.3,-41.8 142.3,-38.2 145.9,-38.2 145.9,-41.8"/>
<polygon id="0x321ab8f0" class="l33d0" points="143,-46.1 143,-43.9 145.2,-43.9 145.2,-46.1"/>
<polygon id="0x321ab9c0" class="l34d0" points="141.8,-47.3 141.8,-42.7 146.4,-42.7 146.4,-47.3"/>
<polygon id="0x321aba90" class="l22d0" points="142.3,-46.8 142.3,-43.2 145.9,-43.2 145.9,-46.8"/>
<polygon id="0x321abb60" class="l33d0" points="143,-51.1 143,-48.9 145.2,-48.9 145.2,-51.1"/>
<polygon id="0x321abc30" class="l34d0" points="141.8,-52.3 141.8,-47.7 146.4,-47.7 146.4,-52.3"/>
<polygon id="0x321abd00" class="l22d0" points="142.3,-51.8 142.3,-48.2 145.9,-48.2 145.9,-51.8"/>
<polygon id="0x321abdd0" class="l33d0" points="143,-56.1 143,-53.9 145.2,-53.9 145.2,-56.1"/>
<polygon id="0x321abea0" class="l34d0" points="141.8,-57.3 141.8,-52.7 146.4,-52.7 146.4,-57.3"/>
<polygon id="0x321abf70" class="l22d0" points="142.3,-56.8 142.3,-53.2 145.9,-53.2 145.9,-56.8"/>
<polygon id="0x321ac040" class="l33d0" points="143,-61.1 143,-58.9 145.2,-58.9 145.2,-61.1"/>
<polygon id="0x321ac110" class="l34d0" points="141.8,-62.3 141.8,-57.7 146.4,-57.7 146.4,-62.3"/>
<polygon id="0x321ac1e0" class="l22d0" points="142.3,-61.8 142.3,-58.2 145.9,-58.2 145.9,-61.8"/>
<polygon id="0x321ac2b0" class="l33d0" points="143,-66.1 143,-63.9 145.2,-63.9 145.2,-66.1"/>
<polygon id="0x321ac380" class="l34d0" points="141.8,-67.3 141.8,-62.7 146.4,-62.7 146.4,-67.3"/>
<polygon id="0x321ac450" class="l22d0" points="142.3,-66.8 142.3,-63.2 145.9,-63.2 145.9,-66.8"/>
<polygon id="0x321ac520" class="l33d0" points="143,-71.1 143,-68.9 145.2,-68.9 145.2,-71.1"/>
<polygon id="0x321ac5f0" class="l34d0" points="141.8,-72.3 141.8,-67.7 146.4,-67.7 146.4,-72.3"/>
<polygon id="0x321ac6c0" class="l22d0" points="142.3,-71.8 142.3,-68.2 145.9,-68.2 145.9,-71.8"/>
<polygon id="0x321ac790" class="l34d0" points="141.8,-80.5 141.8,80.5 146.4,80.5 146.4,-80.5"/>
<polygon id="0x321ac860" class="l22d0" points="142.3,-76.8 142.3,76.8 145.9,76.8 145.9,-76.8"/>
<polygon id="0x321ac930" class="l33d0" points="-133.1,81.2 -133.1,83.4 -130.9,83.4 -130.9,81.2"/>
<polygon id="0x321aca00" class="l36d0" points="-134.5,79.8 -134.5,84.8 -129.5,84.8 -129.5,79.8"/>
<polygon id="0x321acad0" class="l34d0" points="-134.5,79.8 -134.5,84.8 -129.5,84.8 -129.5,79.8"/>
<polygon id="0x321acba0" class="l35d0" points="-133.3,81 -133.3,83.6 -130.7,83.6 -130.7,81"/>
<polygon id="0x321acc70" class="l22d0" points="-133.8,80.5 -133.8,84.1 -130.2,84.1 -130.2,80.5"/>
<polygon id="0x321acd40" class="l33d0" points="130.9,81.2 130.9,83.4 133.1,83.4 133.1,81.2"/>
<polygon id="0x321ace10" class="l36d0" points="129.5,79.8 129.5,84.8 134.5,84.8 134.5,79.8"/>
<polygon id="0x321acee0" class="l34d0" points="129.5,79.8 129.5,84.8 134.5,84.8 134.5,79.8"/>
<polygon id="0x321acfb0" class="l35d0" points="130.7,81 130.7,83.6 133.3,83.6 133.3,81"/>
<polygon id="0x3219f880" class="l22d0" points="130.2,80.5 130.2,84.1 133.8,84.1 133.8,80.5"/>
<polygon id="0x3219f950" class="l33d0" points="122.9,81.2 122.9,83.4 125.1,83.4 125.1,81.2"/>
<polygon id="0x3219fa20" class="l36d0" points="121.5,79.8 121.5,84.8 126.5,84.8 126.5,79.8"/>
<polygon id="0x3219faf0" class="l34d0" points="121.5,79.8 121.5,84.8 126.5,84.8 126.5,79.8"/>
<polygon id="0x3219fbc0" class="l35d0" points="122.7,81 122.7,83.6 125.3,83.6 125.3,81"/>
<polygon id="0x3219fc90" class="l22d0" points="122.2,80.5 122.2,84.1 125.8,84.1 125.8,80.5"/>
<polygon id="0x3219fd60" class="l33d0" points="114.9,81.2 114.9,83.4 117.1,83.4 117.1,81.2"/>
<polygon id="0x3219fe30" class="l36d0" points="113.5,79.8 113.5,84.8 118.5,84.8 118.5,79.8"/>
<polygon id="0x3219ff00" class="l34d0" points="113.5,79.8 113.5,84.8 118.5,84.8 118.5,79.8"/>
<polygon id="0x3219ffd0" class="l35d0" points="114.7,81 114.7,83.6 117.3,83.6 117.3,81"/>
<polygon id="0x321a00a0" class="l22d0" points="114.2,80.5 114.2,84.1 117.8,84.1 117.8,80.5"/>
<polygon id="0x321a0170" class="l33d0" points="106.9,81.2 106.9,83.4 109.1,83.4 109.1,81.2"/>
<polygon id="0x321a0240" class="l36d0" points="105.5,79.8 105.5,84.8 110.5,84.8 110.5,79.8"/>
<polygon id="0x321a0310" class="l34d0" points="105.5,79.8 105.5,84.8 110.5,84.8 110.5,79.8"/>
<polygon id="0x321a03e0" class="l35d0" points="106.7,81 106.7,83.6 109.3,83.6 109.3,81"/>
<polygon id="0x321a04b0" class="l22d0" points="106.2,80.5 106.2,84.1 109.8,84.1 109.8,80.5"/>
<polygon id="0x321a0580" class="l33d0" points="98.9,81.2 98.9,83.4 101.1,83.4 101.1,81.2"/>
<polygon id="0x321a0650" class="l36d0" points="97.5,79.8 97.5,84.8 102.5,84.8 102.5,79.8"/>
<polygon id="0x321a0720" class="l34d0" points="97.5,79.8 97.5,84.8 102.5,84.8 102.5,79.8"/>
<polygon id="0x321af030" class="l35d0" points="98.7,81 98.7,83.6 101.3,83.6 101.3,81"/>
<polygon id="0x321af100" class="l22d0" points="98.2,80.5 98.2,84.1 101.8,84.1 101.8,80.5"/>
<polygon id="0x321af1d0" class="l33d0" points="90.9,81.2 90.9,83.4 93.1,83.4 93.1,81.2"/>
<polygon id="0x321af2a0" class="l36d0" points="89.5,79.8 89.5,84.8 94.5,84.8 94.5,79.8"/>
<polygon id="0x321af370" class="l34d0" points="89.5,79.8 89.5,84.8 94.5,84.8 94.5,79.8"/>
<polygon id="0x321af440" class="l35d0" points="90.7,81 90.7,83.6 93.3,83.6 93.3,81"/>
<polygon id="0x321af510" class="l22d0" points="90.2,80.5 90.2,84.1 93.8,84.1 93.8,80.5"/>
<polygon id="0x321af5e0" class="l33d0" points="82.9,81.2 82.9,83.4 85.1,83.4 85.1,81.2"/>
<polygon id="0x321af6b0" class="l36d0" points="81.5,79.8 81.5,84.8 86.5,84.8 86.5,79.8"/>
<polygon id="0x321af780" class="l34d0" points="81.5,79.8 81.5,84.8 86.5,84.8 86.5,79.8"/>
<polygon id="0x321af850" class="l35d0" points="82.7,81 82.7,83.6 85.3,83.6 85.3,81"/>
<polygon id="0x321af920" class="l22d0" points="82.2,80.5 82.2,84.1 85.8,84.1 85.8,80.5"/>
<polygon id="0x321af9f0" class="l33d0" points="74.9,81.2 74.9,83.4 77.1,83.4 77.1,81.2"/>
<polygon id="0x321afac0" class="l36d0" points="73.5,79.8 73.5,84.8 78.5,84.8 78.5,79.8"/>
<polygon id="0x321afb90" class="l34d0" points="73.5,79.8 73.5,84.8 78.5,84.8 78.5,79.8"/>
<polygon id="0x321afc60" class="l35d0" points="74.7,81 74.7,83.6 77.3,83.6 77.3,81"/>
<polygon id="0x321afd30" class="l22d0" points="74.2,80.5 74.2,84.1 77.8,84.1 77.8,80.5"/>
<polygon id="0x321afe00" class="l33d0" points="66.9,81.2 66.9,83.4 69.1,83.4 69.1,81.2"/>
<polygon id="0x321afed0" class="l36d0" points="65.5,79.8 65.5,84.8 70.5,84.8 70.5,79.8"/>
<polygon id="0x321affa0" class="l34d0" points="65.5,79.8 65.5,84.8 70.5,84.8 70.5,79.8"/>
<polygon id="0x321b0070" class="l35d0" points="66.7,81 66.7,83.6 69.3,83.6 69.3,81"/>
<polygon id="0x321b0140" class="l22d0" points="66.2,80.5 66.2,84.1 69.8,84.1 69.8,80.5"/>
<polygon id="0x321b0210" class="l33d0" points="58.9,81.2 58.9,83.4 61.1,83.4 61.1,81.2"/>
<polygon id="0x321b02e0" class="l36d0" points="57.5,79.8 57.5,84.8 62.5,84.8 62.5,79.8"/>
<polygon id="0x321b03b0" class="l34d0" points="57.5,79.8 57.5,84.8 62.5,84.8 62.5,79.8"/>
<polygon id="0x321b0480" class="l35d0" points="58.7,81 58.7,83.6 61.3,83.6 61.3,81"/>
<polygon id="0x321b0550" class="l22d0" points="58.2,80.5 58.2,84.1 61.8,84.1 61.8,80.5"/>
<polygon id="0x321b0620" class="l33d0" points="50.9,81.2 50.9,83.4 53.1,83.4 53.1,81.2"/>
<polygon id="0x321b06f0" class="l36d0" points="49.5,79.8 49.5,84.8 54.5,84.8 54.5,79.8"/>
<polygon id="0x321b07c0" class="l34d0" points="49.5,79.8 49.5,84.8 54.5,84.8 54.5,79.8"/>
<polygon id="0x321b0890" class="l35d0" points="50.7,81 50.7,83.6 53.3,83.6 53.3,81"/>
<polygon id="0x321b0960" class="l22d0" points="50.2,80.5 50.2,84.1 53.8,84.1 53.8,80.5"/>
<polygon id="0x321b0a30" class="l33d0" points="42.9,81.2 42.9,83.4 45.1,83.4 45.1,81.2"/>
<polygon id="0x321b0b00" class="l36d0" points="41.5,79.8 41.5,84.8 46.5,84.8 46.5,79.8"/>
<polygon id="0x321b0bd0" class="l34d0" points="41.5,79.8 41.5,84.8 46.5,84.8 46.5,79.8"/>
<polygon id="0x321b0ca0" class="l35d0" points="42.7,81 42.7,83.6 45.3,83.6 45.3,81"/>
<polygon id="0x321b0d70" class="l22d0" points="42.2,80.5 42.2,84.1 45.8,84.1 45.8,80.5"/>
<polygon id="0x321b0e40" class="l33d0" points="34.9,81.2 34.9,83.4 37.1,83.4 37.1,81.2"/>
<polygon id="0x321b0f10" class="l36d0" points="33.5,79.8 33.5,84.8 38.5,84.8 38.5,79.8"/>
<polygon id="0x321b0fe0" class="l34d0" points="33.5,79.8 33.5,84.8 38.5,84.8 38.5,79.8"/>
<polygon id="0x321b10b0" class="l35d0" points="34.7,81 34.7,83.6 37.3,83.6 37.3,81"/>
<polygon id="0x321b1180" class="l22d0" points="34.2,80.5 34.2,84.1 37.8,84.1 37.8,80.5"/>
<polygon id="0x321b1250" class="l33d0" points="26.9,81.2 26.9,83.4 29.1,83.4 29.1,81.2"/>
<polygon id="0x321b1320" class="l36d0" points="25.5,79.8 25.5,84.8 30.5,84.8 30.5,79.8"/>
<polygon id="0x321b13f0" class="l34d0" points="25.5,79.8 25.5,84.8 30.5,84.8 30.5,79.8"/>
<polygon id="0x321b14c0" class="l35d0" points="26.7,81 26.7,83.6 29.3,83.6 29.3,81"/>
<polygon id="0x321b1590" class="l22d0" points="26.2,80.5 26.2,84.1 29.8,84.1 29.8,80.5"/>
<polygon id="0x321b1660" class="l33d0" points="18.9,81.2 18.9,83.4 21.1,83.4 21.1,81.2"/>
<polygon id="0x321b1730" class="l36d0" points="17.5,79.8 17.5,84.8 22.5,84.8 22.5,79.8"/>
<polygon id="0x321b1800" class="l34d0" points="17.5,79.8 17.5,84.8 22.5,84.8 22.5,79.8"/>
<polygon id="0x321b18d0" class="l35d0" points="18.7,81 18.7,83.6 21.3,83.6 21.3,81"/>
<polygon id="0x321b19a0" class="l22d0" points="18.2,80.5 18.2,84.1 21.8,84.1 21.8,80.5"/>
<polygon id="0x321b1a70" class="l33d0" points="10.9,81.2 10.9,83.4 13.1,83.4 13.1,81.2"/>
<polygon id="0x321b1b40" class="l36d0" points="9.5,79.8 9.5,84.8 14.5,84.8 14.5,79.8"/>
<polygon id="0x321b1c10" class="l34d0" points="9.5,79.8 9.5,84.8 14.5,84.8 14.5,79.8"/>
<polygon id="0x321b1ce0" class="l35d0" points="10.7,81 10.7,83.6 13.3,83.6 13.3,81"/>
<polygon id="0x321b1db0" class="l22d0" points="10.2,80.5 10.2,84.1 13.8,84.1 13.8,80.5"/>
<polygon id="0x321b1e80" class="l33d0" points="2.9,81.2 2.9,83.4 5.1,83.4 5.1,81.2"/>
<polygon id="0x321b1f50" class="l36d0" points="1.5,79.8 1.5,84.8 6.5,84.8 6.5,79.8"/>
<polygon id="0x321b2020" class="l34d0" points="1.5,79.8 1.5,84.8 6.5,84.8 6.5,79.8"/>
<polygon id="0x321b20f0" class="l35d0" points="2.7,81 2.7,83.6 5.3,83.6 5.3,81"/>
<polygon id="0x321b21c0" class="l22d0" points="2.2,80.5 2.2,84.1 5.8,84.1 5.8,80.5"/>
<polygon id="0x321b2290" class="l33d0" points="-5.1,81.2 -5.1,83.4 -2.9,83.4 -2.9,81.2"/>
<polygon id="0x321b2360" class="l36d0" points="-6.5,79.8 -6.5,84.8 -1.5,84.8 -1.5,79.8"/>
<polygon id="0x321b2430" class="l34d0" points="-6.5,79.8 -6.5,84.8 -1.5,84.8 -1.5,79.8"/>
<polygon id="0x321b2500" class="l35d0" points="-5.3,81 -5.3,83.6 -2.7,83.6 -2.7,81"/>
<polygon id="0x321b25d0" class="l22d0" points="-5.8,80.5 -5.8,84.1 -2.2,84.1 -2.2,80.5"/>
<polygon id="0x321b26a0" class="l33d0" points="-13.1,81.2 -13.1,83.4 -10.9,83.4 -10.9,81.2"/>
<polygon id="0x321b2770" class="l36d0" points="-14.5,79.8 -14.5,84.8 -9.5,84.8 -9.5,79.8"/>
<polygon id="0x321b2840" class="l34d0" points="-14.5,79.8 -14.5,84.8 -9.5,84.8 -9.5,79.8"/>
<polygon id="0x321b2910" class="l35d0" points="-13.3,81 -13.3,83.6 -10.7,83.6 -10.7,81"/>
<polygon id="0x321b29e0" class="l22d0" points="-13.8,80.5 -13.8,84.1 -10.2,84.1 -10.2,80.5"/>
<polygon id="0x321b2ab0" class="l33d0" points="-21.1,81.2 -21.1,83.4 -18.9,83.4 -18.9,81.2"/>
<polygon id="0x321b2b80" class="l36d0" points="-22.5,79.8 -22.5,84.8 -17.5,84.8 -17.5,79.8"/>
<polygon id="0x321b2c50" class="l34d0" points="-22.5,79.8 -22.5,84.8 -17.5,84.8 -17.5,79.8"/>
<polygon id="0x321b2d20" class="l35d0" points="-21.3,81 -21.3,83.6 -18.7,83.6 -18.7,81"/>
<polygon id="0x321b2df0" class="l22d0" points="-21.8,80.5 -21.8,84.1 -18.2,84.1 -18.2,80.5"/>
<polygon id="0x321b2ec0" class="l33d0" points="-29.1,81.2 -29.1,83.4 -26.9,83.4 -26.9,81.2"/>
<polygon id="0x321b2f90" class="l36d0" points="-30.5,79.8 -30.5,84.8 -25.5,84.8 -25.5,79.8"/>
<polygon id="0x321b3060" class="l34d0" points="-30.5,79.8 -30.5,84.8 -25.5,84.8 -25.5,79.8"/>
<polygon id="0x321b3130" class="l35d0" points="-29.3,81 -29.3,83.6 -26.7,83.6 -26.7,81"/>
<polygon id="0x321b3200" class="l22d0" points="-29.8,80.5 -29.8,84.1 -26.2,84.1 -26.2,80.5"/>
<polygon id="0x321b32d0" class="l33d0" points="-37.1,81.2 -37.1,83.4 -34.9,83.4 -34.9,81.2"/>
<polygon id="0x321b33a0" class="l36d0" points="-38.5,79.8 -38.5,84.8 -33.5,84.8 -33.5,79.8"/>
<polygon id="0x321b3470" class="l34d0" points="-38.5,79.8 -38.5,84.8 -33.5,84.8 -33.5,79.8"/>
<polygon id="0x321b3540" class="l35d0" points="-37.3,81 -37.3,83.6 -34.7,83.6 -34.7,81"/>
<polygon id="0x321b3610" class="l22d0" points="-37.8,80.5 -37.8,84.1 -34.2,84.1 -34.2,80.5"/>
<polygon id="0x321b36e0" class="l33d0" points="-45.1,81.2 -45.1,83.4 -42.9,83.4 -42.9,81.2"/>
<polygon id="0x321b37b0" class="l36d0" points="-46.5,79.8 -46.5,84.8 -41.5,84.8 -41.5,79.8"/>
<polygon id="0x321b3880" class="l34d0" points="-46.5,79.8 -46.5,84.8 -41.5,84.8 -41.5,79.8"/>
<polygon id="0x321b3950" class="l35d0" points="-45.3,81 -45.3,83.6 -42.7,83.6 -42.7,81"/>
<polygon id="0x321b3a20" class="l22d0" points="-45.8,80.5 -45.8,84.1 -42.2,84.1 -42.2,80.5"/>
<polygon id="0x321b3af0" class="l33d0" points="-53.1,81.2 -53.1,83.4 -50.9,83.4 -50.9,81.2"/>
<polygon id="0x321b3bc0" class="l36d0" points="-54.5,79.8 -54.5,84.8 -49.5,84.8 -49.5,79.8"/>
<polygon id="0x321b3c90" class="l34d0" points="-54.5,79.8 -54.5,84.8 -49.5,84.8 -49.5,79.8"/>
<polygon id="0x321b3d60" class="l35d0" points="-53.3,81 -53.3,83.6 -50.7,83.6 -50.7,81"/>
<polygon id="0x321b3e30" class="l22d0" points="-53.8,80.5 -53.8,84.1 -50.2,84.1 -50.2,80.5"/>
<polygon id="0x321b3f00" class="l33d0" points="-61.1,81.2 -61.1,83.4 -58.9,83.4 -58.9,81.2"/>
<polygon id="0x321b3fd0" class="l36d0" points="-62.5,79.8 -62.5,84.8 -57.5,84.8 -57.5,79.8"/>
<polygon id="0x321b40a0" class="l34d0" points="-62.5,79.8 -62.5,84.8 -57.5,84.8 -57.5,79.8"/>
<polygon id="0x321b4170" class="l35d0" points="-61.3,81 -61.3,83.6 -58.7,83.6 -58.7,81"/>
<polygon id="0x321b4240" class="l22d0" points="-61.8,80.5 -61.8,84.1 -58.2,84.1 -58.2,80.5"/>
<polygon id="0x321b4310" class="l33d0" points="-69.1,81.2 -69.1,83.4 -66.9,83.4 -66.9,81.2"/>
<polygon id="0x321b43e0" class="l36d0" points="-70.5,79.8 -70.5,84.8 -65.5,84.8 -65.5,79.8"/>
<polygon id="0x321b44b0" class="l34d0" points="-70.5,79.8 -70.5,84.8 -65.5,84.8 -65.5,79.8"/>
<polygon id="0x321b4580" class="l35d0" points="-69.3,81 -69.3,83.6 -66.7,83.6 -66.7,81"/>
<polygon id="0x321b4650" class="l22d0" points="-69.8,80.5 -69.8,84.1 -66.2,84.1 -66.2,80.5"/>
<polygon id="0x321b4720" class="l33d0" points="-77.1,81.2 -77.1,83.4 -74.9,83.4 -74.9,81.2"/>
<polygon id="0x321b47f0" class="l36d0" points="-78.5,79.8 -78.5,84.8 -73.5,84.8 -73.5,79.8"/>
<polygon id="0x321b48c0" class="l34d0" points="-78.5,79.8 -78.5,84.8 -73.5,84.8 -73.5,79.8"/>
<polygon id="0x321b4990" class="l35d0" points="-77.3,81 -77.3,83.6 -74.7,83.6 -74.7,81"/>
<polygon id="0x321b4a60" class="l22d0" points="-77.8,80.5 -77.8,84.1 -74.2,84.1 -74.2,80.5"/>
<polygon id="0x321b4b30" class="l33d0" points="-85.1,81.2 -85.1,83.4 -82.9,83.4 -82.9,81.2"/>
<polygon id="0x321b4c00" class="l36d0" points="-86.5,79.8 -86.5,84.8 -81.5,84.8 -81.5,79.8"/>
<polygon id="0x321b4cd0" class="l34d0" points="-86.5,79.8 -86.5,84.8 -81.5,84.8 -81.5,79.8"/>
<polygon id="0x321b4da0" class="l35d0" points="-85.3,81 -85.3,83.6 -82.7,83.6 -82.7,81"/>
<polygon id="0x321b4e70" class="l22d0" points="-85.8,80.5 -85.8,84.1 -82.2,84.1 -82.2,80.5"/>
<polygon id="0x321b4f40" class="l33d0" points="-93.1,81.2 -93.1,83.4 -90.9,83.4 -90.9,81.2"/>
<polygon id="0x321b5010" class="l36d0" points="-94.5,79.8 -94.5,84.8 -89.5,84.8 -89.5,79.8"/>
<polygon id="0x321b50e0" class="l34d0" points="-94.5,79.8 -94.5,84.8 -89.5,84.8 -89.5,79.8"/>
<polygon id="0x321b51b0" class="l35d0" points="-93.3,81 -93.3,83.6 -90.7,83.6 -90.7,81"/>
<polygon id="0x321b5280" class="l22d0" points="-93.8,80.5 -93.8,84.1 -90.2,84.1 -90.2,80.5"/>
<polygon id="0x321b5350" class="l33d0" points="-101.1,81.2 -101.1,83.4 -98.9,83.4 -98.9,81.2"/>
<polygon id="0x321b5420" class="l36d0" points="-102.5,79.8 -102.5,84.8 -97.5,84.8 -97.5,79.8"/>
<polygon id="0x321b54f0" class="l34d0" points="-102.5,79.8 -102.5,84.8 -97.5,84.8 -97.5,79.8"/>
<polygon id="0x321b55c0" class="l35d0" points="-101.3,81 -101.3,83.6 -98.7,83.6 -98.7,81"/>
<polygon id="0x321b5690" class="l22d0" points="-101.8,80.5 -101.8,84.1 -98.2,84.1 -98.2,80.5"/>
<polygon id="0x321b5760" class="l33d0" points="-109.1,81.2 -109.1,83.4 -106.9,83.4 -106.9,81.2"/>
<polygon id="0x321b5830" class="l36d0" points="-110.5,79.8 -110.5,84.8 -105.5,84.8 -105.5,79.8"/>
<polygon id="0x321b5900" class="l34d0" points="-110.5,79.8 -110.5,84.8 -105.5,84.8 -105.5,79.8"/>
<polygon id="0x321b59d0" class="l35d0" points="-109.3,81 -109.3,83.6 -106.7,83.6 -106.7,81"/>
<polygon id="0x321b5aa0" class="l22d0" points="-109.8,80.5 -109.8,84.1 -106.2,84.1 -106.2,80.5"/>
<polygon id="0x321b5b70" class="l33d0" points="-117.1,81.2 -117.1,83.4 -114.9,83.4 -114.9,81.2"/>
<polygon id="0x321b5c40" class="l36d0" points="-118.5,79.8 -118.5,84.8 -113.5,84.8 -113.5,79.8"/>
<polygon id="0x321b5d10" class="l34d0" points="-118.5,79.8 -118.5,84.8 -113.5,84.8 -113.5,79.8"/>
<polygon id="0x321b5de0" class="l35d0" points="-117.3,81 -117.3,83.6 -114.7,83.6 -114.7,81"/>
<polygon id="0x321b5eb0" class="l22d0" points="-117.8,80.5 -117.8,84.1 -114.2,84.1 -114.2,80.5"/>
<polygon id="0x321b5f80" class="l33d0" points="-125.1,81.2 -125.1,83.4 -122.9,83.4 -122.9,81.2"/>
<polygon id="0x321b6050" class="l36d0" points="-126.5,79.8 -126.5,84.8 -121.5,84.8 -121.5,79.8"/>
<polygon id="0x321b6120" class="l34d0" points="-126.5,79.8 -126.5,84.8 -121.5,84.8 -121.5,79.8"/>
<polygon id="0x321b61f0" class="l35d0" points="-125.3,81 -125.3,83.6 -122.7,83.6 -122.7,81"/>
<polygon id="0x321b62c0" class="l22d0" points="-125.8,80.5 -125.8,84.1 -122.2,84.1 -122.2,80.5"/>
<polygon id="0x321b6390" class="l34d0" points="-134.5,79.8 -134.5,84.8 134.5,84.8 134.5,79.8"/>
<polygon id="0x321b6460" class="l36d0" points="-142.3,79.8 -142.3,84.8 142.3,84.8 142.3,79.8"/>
<polygon id="0x321b6530" class="l22d0" points="-133.8,80.5 -133.8,84.1 133.8,84.1 133.8,80.5"/>
<polygon id="0x321b6600" class="l31d0" points="147.5,85.7 -147.5,85.7 -147.5,-78.9 -140.7,-78.9 -140.7,78.9 140.7,78.9 140.7,-78.9 -140.7,-78.9 -147.5,-78.9 -147.5,-85.7 147.5,-85.7"/>
<polygon id="0x321b6670" class="l34d0" points="58.4,-16.05 90,-16.05 90,-11.45 58.4,-11.45"/>
<polygon id="0x321b6740" class="l34d0" points="-90,-16.05 -63,-16.05 -63,-11.45 -90,-11.45"/>
<polygon id="0x321b6810" class="l22d0" points="89.5,27.7 -89.5,27.7 -89.5,-24.1 -85.9,-24.1 -85.9,24.1 85.9,24.1 85.9,-24.1 -85.9,-24.1 -89.5,-24.1 -89.5,-27.7 89.5,-27.7"/>
<polygon id="0x321b6880" class="l36d0" points="85.9,-28.4 90,-28.4 90,-23.4 85.9,-23.4"/>
<polygon id="0x321b6950" class="l35d0" points="86.2,-27.2 86.2,-24.6 88.8,-24.6 88.8,-27.2"/>
<polygon id="0x321b6a20" class="l36d0" points="85,-28.4 85,-23.4 90,-23.4 90,-28.4"/>
<polygon id="0x321b6af0" class="l34d0" points="85,-28.4 85,-23.4 90,-23.4 90,-28.4"/>
<polygon id="0x321b6bc0" class="l36d0" points="85,-28.4 85,-23.4 90,-23.4 90,-28.4"/>
<polygon id="0x321b6c90" class="l34d0" points="85,-28.4 85,-23.4 90,-23.4 90,-28.4"/>
<polygon id="0x321b6d60" class="l34d0" points="85.4,-28.4 90,-28.4 90,-24.1 85.4,-24.1"/>
<polygon id="0x321b6e30" class="l36d0" points="-90,-28.4 -85.9,-28.4 -85.9,-23.4 -90,-23.4"/>
<polygon id="0x321b6f00" class="l35d0" points="-88.8,-27.2 -88.8,-24.6 -86.2,-24.6 -86.2,-27.2"/>
<polygon id="0x321b6fd0" class="l36d0" points="-90,-28.4 -90,-23.4 -85,-23.4 -85,-28.4"/>
<polygon id="0x321b70a0" class="l34d0" points="-90,-28.4 -90,-23.4 -85,-23.4 -85,-28.4"/>
<polygon id="0x321b7170" class="l36d0" points="-90,-28.4 -90,-23.4 -85,-23.4 -85,-28.4"/>
<polygon id="0x321b7240" class="l34d0" points="-90,-28.4 -90,-23.4 -85,-23.4 -85,-28.4"/>
<polygon id="0x321b7310" class="l34d0" points="-90,-28.4 -85.4,-28.4 -85.4,-24.1 -90,-24.1"/>
<polygon id="0x321b73e0" class="l36d0" points="85.9,23.4 90,23.4 90,28.4 85.9,28.4"/>
<polygon id="0x321b74b0" class="l35d0" points="86.2,24.6 86.2,27.2 88.8,27.2 88.8,24.6"/>
<polygon id="0x321b7580" class="l36d0" points="85,23.4 85,28.4 90,28.4 90,23.4"/>
<polygon id="0x321b7650" class="l34d0" points="85,23.4 85,28.4 90,28.4 90,23.4"/>
<polygon id="0x321b7720" class="l36d0" points="85,23.4 85,28.4 90,28.4 90,23.4"/>
<polygon id="0x321b77f0" class="l34d0" points="85,23.4 85,28.4 90,28.4 90,23.4"/>
<polygon id="0x321b78c0" class="l34d0" points="85.4,24.1 90,24.1 90,28.4 85.4,28.4"/>
<polygon id="0x321b7990" class="l36d0" points="-90,23.4 -85.9,23.4 -85.9,28.4 -90,28.4"/>
<polygon id="0x321b7a60" class="l35d0" points="-88.8,24.6 -88.8,27.2 -86.2,27.2 -86.2,24.6"/>
<polygon id="0x321b7b30" class="l36d0" points="-90,23.4 -90,28.4 -85,28.4 -85,23.4"/>
<polygon id="0x321b7c00" class="l34d0" points="-90,23.4 -90,28.4 -85,28.4 -85,23.4"/>
<polygon id="0x321b7cd0" class="l36d0" points="-90,23.4 -90,28.4 -85,28.4 -85,23.4"/>
<polygon id="0x321b7da0" class="l34d0" points="-90,23.4 -90,28.4 -85,28.4 -85,23.4"/>
<polygon id="0x321b7e70" class="l34d0" points="-90,24.1 -85.4,24.1 -85.4,28.4 -90,28.4"/>
<polygon id="0x321b7f40" class="l33d0" points="-88.8,-18.6 -88.8,-16.4 -86.6,-16.4 -86.6,-18.6"/>
<polygon id="0x321b8010" class="l34d0" points="-90,-19.8 -90,-15.2 -85.4,-15.2 -85.4,-19.8"/>
<polygon id="0x321b80e0" class="l22d0" points="-89.5,-19.3 -89.5,-15.7 -85.9,-15.7 -85.9,-19.3"/>
<polygon id="0x321b81b0" class="l33d0" points="-88.8,16.4 -88.8,18.6 -86.6,18.6 -86.6,16.4"/>
<polygon id="0x321b8280" class="l34d0" points="-90,15.2 -90,19.8 -85.4,19.8 -85.4,15.2"/>
<polygon id="0x321b8350" class="l22d0" points="-89.5,15.7 -89.5,19.3 -85.9,19.3 -85.9,15.7"/>
<polygon id="0x321b8420" class="l33d0" points="-88.8,11.4 -88.8,13.6 -86.6,13.6 -86.6,11.4"/>
<polygon id="0x321b84f0" class="l34d0" points="-90,10.2 -90,14.8 -85.4,14.8 -85.4,10.2"/>
<polygon id="0x321b85c0" class="l22d0" points="-89.5,10.7 -89.5,14.3 -85.9,14.3 -85.9,10.7"/>
<polygon id="0x321b8690" class="l33d0" points="-88.8,6.4 -88.8,8.6 -86.6,8.6 -86.6,6.4"/>
<polygon id="0x321b8760" class="l34d0" points="-90,5.2 -90,9.8 -85.4,9.8 -85.4,5.2"/>
<polygon id="0x321b8830" class="l22d0" points="-89.5,5.7 -89.5,9.3 -85.9,9.3 -85.9,5.7"/>
<polygon id="0x321b8900" class="l33d0" points="-88.8,1.4 -88.8,3.6 -86.6,3.6 -86.6,1.4"/>
<polygon id="0x321b89d0" class="l34d0" points="-90,0.2 -90,4.8 -85.4,4.8 -85.4,0.2"/>
<polygon id="0x321b8aa0" class="l22d0" points="-89.5,0.7 -89.5,4.3 -85.9,4.3 -85.9,0.7"/>
<polygon id="0x321b8b70" class="l33d0" points="-88.8,-3.6 -88.8,-1.4 -86.6,-1.4 -86.6,-3.6"/>
<polygon id="0x321b8c40" class="l34d0" points="-90,-4.8 -90,-0.2 -85.4,-0.2 -85.4,-4.8"/>
<polygon id="0x321b8d10" class="l22d0" points="-89.5,-4.3 -89.5,-0.7 -85.9,-0.7 -85.9,-4.3"/>
<polygon id="0x321b8de0" class="l33d0" points="-88.8,-8.6 -88.8,-6.4 -86.6,-6.4 -86.6,-8.6"/>
<polygon id="0x321b8eb0" class="l34d0" points="-90,-9.8 -90,-5.2 -85.4,-5.2 -85.4,-9.8"/>
<polygon id="0x321b8f80" class="l22d0" points="-89.5,-9.3 -89.5,-5.7 -85.9,-5.7 -85.9,-9.3"/>
<polygon id="0x321b9050" class="l33d0" points="-88.8,-13.6 -88.8,-11.4 -86.6,-11.4 -86.6,-13.6"/>
<polygon id="0x321b9120" class="l34d0" points="-90,-14.8 -90,-10.2 -85.4,-10.2 -85.4,-14.8"/>
<polygon id="0x321b91f0" class="l22d0" points="-89.5,-14.3 -89.5,-10.7 -85.9,-10.7 -85.9,-14.3"/>
<polygon id="0x321b92c0" class="l34d0" points="-90,-24.1 -90,24.1 -85.4,24.1 -85.4,-24.1"/>
<polygon id="0x321b9390" class="l22d0" points="-89.5,-19.3 -89.5,19.3 -85.9,19.3 -85.9,-19.3"/>
<polygon id="0x321b9460" class="l33d0" points="-77.1,-27 -77.1,-24.8 -74.9,-24.8 -74.9,-27"/>
<polygon id="0x321b9530" class="l36d0" points="-78.5,-28.4 -78.5,-23.4 -73.5,-23.4 -73.5,-28.4"/>
<polygon id="0x321b9600" class="l34d0" points="-78.5,-28.4 -78.5,-23.4 -73.5,-23.4 -73.5,-28.4"/>
<polygon id="0x321b96d0" class="l35d0" points="-77.3,-27.2 -77.3,-24.6 -74.7,-24.6 -74.7,-27.2"/>
<polygon id="0x321b97a0" class="l22d0" points="-77.8,-27.7 -77.8,-24.1 -74.2,-24.1 -74.2,-27.7"/>
<polygon id="0x321b9870" class="l33d0" points="74.9,-27 74.9,-24.8 77.1,-24.8 77.1,-27"/>
<polygon id="0x321b9940" class="l36d0" points="73.5,-28.4 73.5,-23.4 78.5,-23.4 78.5,-28.4"/>
<polygon id="0x321b9a10" class="l34d0" points="73.5,-28.4 73.5,-23.4 78.5,-23.4 78.5,-28.4"/>
<polygon id="0x321b9ae0" class="l35d0" points="74.7,-27.2 74.7,-24.6 77.3,-24.6 77.3,-27.2"/>
<polygon id="0x321b9bb0" class="l22d0" points="74.2,-27.7 74.2,-24.1 77.8,-24.1 77.8,-27.7"/>
<polygon id="0x321b9c80" class="l33d0" points="66.9,-27 66.9,-24.8 69.1,-24.8 69.1,-27"/>
<polygon id="0x321b9d50" class="l36d0" points="65.5,-28.4 65.5,-23.4 70.5,-23.4 70.5,-28.4"/>
<polygon id="0x321b9e20" class="l34d0" points="65.5,-28.4 65.5,-23.4 70.5,-23.4 70.5,-28.4"/>
<polygon id="0x321b9ef0" class="l35d0" points="66.7,-27.2 66.7,-24.6 69.3,-24.6 69.3,-27.2"/>
<polygon id="0x321b9fc0" class="l22d0" points="66.2,-27.7 66.2,-24.1 69.8,-24.1 69.8,-27.7"/>
<polygon id="0x321ba090" class="l33d0" points="58.9,-27 58.9,-24.8 61.1,-24.8 61.1,-27"/>
<polygon id="0x321ba160" class="l36d0" points="57.5,-28.4 57.5,-23.4 62.5,-23.4 62.5,-28.4"/>
<polygon id="0x321ba230" class="l34d0" points="57.5,-28.4 57.5,-23.4 62.5,-23.4 62.5,-28.4"/>
<polygon id="0x321ba300" class="l35d0" points="58.7,-27.2 58.7,-24.6 61.3,-24.6 61.3,-27.2"/>
<polygon id="0x321ba3d0" class="l22d0" points="58.2,-27.7 58.2,-24.1 61.8,-24.1 61.8,-27.7"/>
<polygon id="0x321ba4a0" class="l33d0" points="50.9,-27 50.9,-24.8 53.1,-24.8 53.1,-27"/>
<polygon id="0x321ba570" class="l36d0" points="49.5,-28.4 49.5,-23.4 54.5,-23.4 54.5,-28.4"/>
<polygon id="0x321ba640" class="l34d0" points="49.5,-28.4 49.5,-23.4 54.5,-23.4 54.5,-28.4"/>
<polygon id="0x321ba710" class="l35d0" points="50.7,-27.2 50.7,-24.6 53.3,-24.6 53.3,-27.2"/>
<polygon id="0x321ba7e0" class="l22d0" points="50.2,-27.7 50.2,-24.1 53.8,-24.1 53.8,-27.7"/>
<polygon id="0x321ba8b0" class="l33d0" points="42.9,-27 42.9,-24.8 45.1,-24.8 45.1,-27"/>
<polygon id="0x321ba980" class="l36d0" points="41.5,-28.4 41.5,-23.4 46.5,-23.4 46.5,-28.4"/>
<polygon id="0x321baa50" class="l34d0" points="41.5,-28.4 41.5,-23.4 46.5,-23.4 46.5,-28.4"/>
<polygon id="0x321bab20" class="l35d0" points="42.7,-27.2 42.7,-24.6 45.3,-24.6 45.3,-27.2"/>
<polygon id="0x321babf0" class="l22d0" points="42.2,-27.7 42.2,-24.1 45.8,-24.1 45.8,-27.7"/>
<polygon id="0x321bacc0" class="l33d0" points="34.9,-27 34.9,-24.8 37.1,-24.8 37.1,-27"/>
<polygon id="0x321bad90" class="l36d0" points="33.5,-28.4 33.5,-23.4 38.5,-23.4 38.5,-28.4"/>
<polygon id="0x321bae60" class="l34d0" points="33.5,-28.4 33.5,-23.4 38.5,-23.4 38.5,-28.4"/>
<polygon id="0x321baf30" class="l35d0" points="34.7,-27.2 34.7,-24.6 37.3,-24.6 37.3,-27.2"/>
<polygon id="0x321bb000" class="l22d0" points="34.2,-27.7 34.2,-24.1 37.8,-24.1 37.8,-27.7"/>
<polygon id="0x321bb0d0" class="l33d0" points="26.9,-27 26.9,-24.8 29.1,-24.8 29.1,-27"/>
<polygon id="0x321bb1a0" class="l36d0" points="25.5,-28.4 25.5,-23.4 30.5,-23.4 30.5,-28.4"/>
<polygon id="0x321bb270" class="l34d0" points="25.5,-28.4 25.5,-23.4 30.5,-23.4 30.5,-28.4"/>
<polygon id="0x321bb340" class="l35d0" points="26.7,-27.2 26.7,-24.6 29.3,-24.6 29.3,-27.2"/>
<polygon id="0x321bb410" class="l22d0" points="26.2,-27.7 26.2,-24.1 29.8,-24.1 29.8,-27.7"/>
<polygon id="0x321bb4e0" class="l33d0" points="18.9,-27 18.9,-24.8 21.1,-24.8 21.1,-27"/>
<polygon id="0x321bb5b0" class="l36d0" points="17.5,-28.4 17.5,-23.4 22.5,-23.4 22.5,-28.4"/>
<polygon id="0x321bb680" class="l34d0" points="17.5,-28.4 17.5,-23.4 22.5,-23.4 22.5,-28.4"/>
<polygon id="0x321bb750" class="l35d0" points="18.7,-27.2 18.7,-24.6 21.3,-24.6 21.3,-27.2"/>
<polygon id="0x321bb820" class="l22d0" points="18.2,-27.7 18.2,-24.1 21.8,-24.1 21.8,-27.7"/>
<polygon id="0x321bb8f0" class="l33d0" points="10.9,-27 10.9,-24.8 13.1,-24.8 13.1,-27"/>
<polygon id="0x321bb9c0" class="l36d0" points="9.5,-28.4 9.5,-23.4 14.5,-23.4 14.5,-28.4"/>
<polygon id="0x321bba90" class="l34d0" points="9.5,-28.4 9.5,-23.4 14.5,-23.4 14.5,-28.4"/>
<polygon id="0x321bbb60" class="l35d0" points="10.7,-27.2 10.7,-24.6 13.3,-24.6 13.3,-27.2"/>
<polygon id="0x321bbc30" class="l22d0" points="10.2,-27.7 10.2,-24.1 13.8,-24.1 13.8,-27.7"/>
<polygon id="0x321bbd00" class="l33d0" points="2.9,-27 2.9,-24.8 5.1,-24.8 5.1,-27"/>
<polygon id="0x321bbdd0" class="l36d0" points="1.5,-28.4 1.5,-23.4 6.5,-23.4 6.5,-28.4"/>
<polygon id="0x321bbea0" class="l34d0" points="1.5,-28.4 1.5,-23.4 6.5,-23.4 6.5,-28.4"/>
<polygon id="0x321bbf70" class="l35d0" points="2.7,-27.2 2.7,-24.6 5.3,-24.6 5.3,-27.2"/>
<polygon id="0x321bc040" class="l22d0" points="2.2,-27.7 2.2,-24.1 5.8,-24.1 5.8,-27.7"/>
<polygon id="0x321bc110" class="l33d0" points="-5.1,-27 -5.1,-24.8 -2.9,-24.8 -2.9,-27"/>
<polygon id="0x321bc1e0" class="l36d0" points="-6.5,-28.4 -6.5,-23.4 -1.5,-23.4 -1.5,-28.4"/>
<polygon id="0x321bc2b0" class="l34d0" points="-6.5,-28.4 -6.5,-23.4 -1.5,-23.4 -1.5,-28.4"/>
<polygon id="0x321bc380" class="l35d0" points="-5.3,-27.2 -5.3,-24.6 -2.7,-24.6 -2.7,-27.2"/>
<polygon id="0x321bc450" class="l22d0" points="-5.8,-27.7 -5.8,-24.1 -2.2,-24.1 -2.2,-27.7"/>
<polygon id="0x321bc520" class="l33d0" points="-13.1,-27 -13.1,-24.8 -10.9,-24.8 -10.9,-27"/>
<polygon id="0x321bc5f0" class="l36d0" points="-14.5,-28.4 -14.5,-23.4 -9.5,-23.4 -9.5,-28.4"/>
<polygon id="0x321bc6c0" class="l34d0" points="-14.5,-28.4 -14.5,-23.4 -9.5,-23.4 -9.5,-28.4"/>
<polygon id="0x321bc790" class="l35d0" points="-13.3,-27.2 -13.3,-24.6 -10.7,-24.6 -10.7,-27.2"/>
<polygon id="0x321bc860" class="l22d0" points="-13.8,-27.7 -13.8,-24.1 -10.2,-24.1 -10.2,-27.7"/>
<polygon id="0x321bc930" class="l33d0" points="-21.1,-27 -21.1,-24.8 -18.9,-24.8 -18.9,-27"/>
<polygon id="0x321bca00" class="l36d0" points="-22.5,-28.4 -22.5,-23.4 -17.5,-23.4 -17.5,-28.4"/>
<polygon id="0x321bcad0" class="l34d0" points="-22.5,-28.4 -22.5,-23.4 -17.5,-23.4 -17.5,-28.4"/>
<polygon id="0x321bcba0" class="l35d0" points="-21.3,-27.2 -21.3,-24.6 -18.7,-24.6 -18.7,-27.2"/>
<polygon id="0x321bcc70" class="l22d0" points="-21.8,-27.7 -21.8,-24.1 -18.2,-24.1 -18.2,-27.7"/>
<polygon id="0x321bcd40" class="l33d0" points="-29.1,-27 -29.1,-24.8 -26.9,-24.8 -26.9,-27"/>
<polygon id="0x321bce10" class="l36d0" points="-30.5,-28.4 -30.5,-23.4 -25.5,-23.4 -25.5,-28.4"/>
<polygon id="0x321bcee0" class="l34d0" points="-30.5,-28.4 -30.5,-23.4 -25.5,-23.4 -25.5,-28.4"/>
<polygon id="0x321bcfb0" class="l35d0" points="-29.3,-27.2 -29.3,-24.6 -26.7,-24.6 -26.7,-27.2"/>
<polygon id="0x321bd080" class="l22d0" points="-29.8,-27.7 -29.8,-24.1 -26.2,-24.1 -26.2,-27.7"/>
<polygon id="0x321bd150" class="l33d0" points="-37.1,-27 -37.1,-24.8 -34.9,-24.8 -34.9,-27"/>
<polygon id="0x321bd220" class="l36d0" points="-38.5,-28.4 -38.5,-23.4 -33.5,-23.4 -33.5,-28.4"/>
<polygon id="0x321bd2f0" class="l34d0" points="-38.5,-28.4 -38.5,-23.4 -33.5,-23.4 -33.5,-28.4"/>
<polygon id="0x321bd3c0" class="l35d0" points="-37.3,-27.2 -37.3,-24.6 -34.7,-24.6 -34.7,-27.2"/>
<polygon id="0x321bd490" class="l22d0" points="-37.8,-27.7 -37.8,-24.1 -34.2,-24.1 -34.2,-27.7"/>
<polygon id="0x321bd560" class="l33d0" points="-45.1,-27 -45.1,-24.8 -42.9,-24.8 -42.9,-27"/>
<polygon id="0x321bd630" class="l36d0" points="-46.5,-28.4 -46.5,-23.4 -41.5,-23.4 -41.5,-28.4"/>
<polygon id="0x321bd700" class="l34d0" points="-46.5,-28.4 -46.5,-23.4 -41.5,-23.4 -41.5,-28.4"/>
<polygon id="0x321bd7d0" class="l35d0" points="-45.3,-27.2 -45.3,-24.6 -42.7,-24.6 -42.7,-27.2"/>
<polygon id="0x321bd8a0" class="l22d0" points="-45.8,-27.7 -45.8,-24.1 -42.2,-24.1 -42.2,-27.7"/>
<polygon id="0x321bd970" class="l33d0" points="-53.1,-27 -53.1,-24.8 -50.9,-24.8 -50.9,-27"/>
<polygon id="0x321bda40" class="l36d0" points="-54.5,-28.4 -54.5,-23.4 -49.5,-23.4 -49.5,-28.4"/>
<polygon id="0x321bdb10" class="l34d0" points="-54.5,-28.4 -54.5,-23.4 -49.5,-23.4 -49.5,-28.4"/>
<polygon id="0x321bdbe0" class="l35d0" points="-53.3,-27.2 -53.3,-24.6 -50.7,-24.6 -50.7,-27.2"/>
<polygon id="0x321bdcb0" class="l22d0" points="-53.8,-27.7 -53.8,-24.1 -50.2,-24.1 -50.2,-27.7"/>
<polygon id="0x321bdd80" class="l33d0" points="-61.1,-27 -61.1,-24.8 -58.9,-24.8 -58.9,-27"/>
<polygon id="0x321bde50" class="l36d0" points="-62.5,-28.4 -62.5,-23.4 -57.5,-23.4 -57.5,-28.4"/>
<polygon id="0x321bdf20" class="l34d0" points="-62.5,-28.4 -62.5,-23.4 -57.5,-23.4 -57.5,-28.4"/>
<polygon id="0x321bdff0" class="l35d0" points="-61.3,-27.2 -61.3,-24.6 -58.7,-24.6 -58.7,-27.2"/>
<polygon id="0x321be0c0" class="l22d0" points="-61.8,-27.7 -61.8,-24.1 -58.2,-24.1 -58.2,-27.7"/>
<polygon id="0x321be190" class="l33d0" points="-69.1,-27 -69.1,-24.8 -66.9,-24.8 -66.9,-27"/>
<polygon id="0x321be260" class="l36d0" points="-70.5,-28.4 -70.5,-23.4 -65.5,-23.4 -65.5,-28.4"/>
<polygon id="0x321be330" class="l34d0" points="-70.5,-28.4 -70.5,-23.4 -65.5,-23.4 -65.5,-28.4"/>
<polygon id="0x321be400" class="l35d0" points="-69.3,-27.2 -69.3,-24.6 -66.7,-24.6 -66.7,-27.2"/>
<polygon id="0x321be4d0" class="l22d0" points="-69.8,-27.7 -69.8,-24.1 -66.2,-24.1 -66.2,-27.7"/>
<polygon id="0x321be5a0" class="l34d0" points="-78.5,-28.4 -78.5,-23.4 78.5,-23.4 78.5,-28.4"/>
<polygon id="0x321be670" class="l36d0" points="-85.9,-28.4 -85.9,-23.4 85.9,-23.4 85.9,-28.4"/>
<polygon id="0x321be740" class="l22d0" points="-77.8,-27.7 -77.8,-24.1 77.8,-24.1 77.8,-27.7"/>
<polygon id="0x321be810" class="l33d0" points="86.6,-18.6 86.6,-16.4 88.8,-16.4 88.8,-18.6"/>
<polygon id="0x321be8e0" class="l34d0" points="85.4,-19.8 85.4,-15.2 90,-15.2 90,-19.8"/>
<polygon id="0x321be9b0" class="l22d0" points="85.9,-19.3 85.9,-15.7 89.5,-15.7 89.5,-19.3"/>
<polygon id="0x321bea80" class="l33d0" points="86.6,16.4 86.6,18.6 88.8,18.6 88.8,16.4"/>
<polygon id="0x321beb50" class="l34d0" points="85.4,15.2 85.4,19.8 90,19.8 90,15.2"/>
<polygon id="0x321bec20" class="l22d0" points="85.9,15.7 85.9,19.3 89.5,19.3 89.5,15.7"/>
<polygon id="0x321becf0" class="l33d0" points="86.6,11.4 86.6,13.6 88.8,13.6 88.8,11.4"/>
<polygon id="0x321bedc0" class="l34d0" points="85.4,10.2 85.4,14.8 90,14.8 90,10.2"/>
<polygon id="0x321bee90" class="l22d0" points="85.9,10.7 85.9,14.3 89.5,14.3 89.5,10.7"/>
<polygon id="0x321bef60" class="l33d0" points="86.6,6.4 86.6,8.6 88.8,8.6 88.8,6.4"/>
<polygon id="0x321bf030" class="l34d0" points="85.4,5.2 85.4,9.8 90,9.8 90,5.2"/>
<polygon id="0x321bf100" class="l22d0" points="85.9,5.7 85.9,9.3 89.5,9.3 89.5,5.7"/>
<polygon id="0x321bf1d0" class="l33d0" points="86.6,1.4 86.6,3.6 88.8,3.6 88.8,1.4"/>
<polygon id="0x321bf2a0" class="l34d0" points="85.4,0.2 85.4,4.8 90,4.8 90,0.2"/>
<polygon id="0x321bf370" class="l22d0" points="85.9,0.7 85.9,4.3 89.5,4.3 89.5,0.7"/>
<polygon id="0x321bf440" class="l33d0" points="86.6,-3.6 86.6,-1.4 88.8,-1.4 88.8,-3.6"/>
<polygon id="0x321bf510" class="l34d0" points="85.4,-4.8 85.4,-0.2 90,-0.2 90,-4.8"/>
<polygon id="0x321bf5e0" class="l22d0" points="85.9,-4.3 85.9,-0.7 89.5,-0.7 89.5,-4.3"/>
<polygon id="0x321bf6b0" class="l33d0" points="86.6,-8.6 86.6,-6.4 88.8,-6.4 88.8,-8.6"/>
<polygon id="0x321bf780" class="l34d0" points="85.4,-9.8 85.4,-5.2 90,-5.2 90,-9.8"/>
<polygon id="0x321bf850" class="l22d0" points="85.9,-9.3 85.9,-5.7 89.5,-5.7 89.5,-9.3"/>
<polygon id="0x321bf920" class="l33d0" points="86.6,-13.6 86.6,-11.4 88.8,-11.4 88.8,-13.6"/>
<polygon id="0x321bf9f0" class="l34d0" points="85.4,-14.8 85.4,-10.2 90,-10.2 90,-14.8"/>
<polygon id="0x321bfac0" class="l22d0" points="85.9,-14.3 85.9,-10.7 89.5,-10.7 89.5,-14.3"/>
<polygon id="0x321bfb90" class="l34d0" points="85.4,-24.1 85.4,24.1 90,24.1 90,-24.1"/>
<polygon id="0x321bfc60" class="l22d0" points="85.9,-19.3 85.9,19.3 89.5,19.3 89.5,-19.3"/>
<polygon id="0x321bfd30" class="l33d0" points="-77.1,24.8 -77.1,27 -74.9,27 -74.9,24.8"/>
<polygon id="0x321bfe00" class="l36d0" points="-78.5,23.4 -78.5,28.4 -73.5,28.4 -73.5,23.4"/>
<polygon id="0x321bfed0" class="l34d0" points="-78.5,23.4 -78.5,28.4 -73.5,28.4 -73.5,23.4"/>
<polygon id="0x321bffa0" class="l35d0" points="-77.3,24.6 -77.3,27.2 -74.7,27.2 -74.7,24.6"/>
<polygon id="0x321c0070" class="l22d0" points="-77.8,24.1 -77.8,27.7 -74.2,27.7 -74.2,24.1"/>
<polygon id="0x321c0140" class="l33d0" points="74.9,24.8 74.9,27 77.1,27 77.1,24.8"/>
<polygon id="0x321c0210" class="l36d0" points="73.5,23.4 73.5,28.4 78.5,28.4 78.5,23.4"/>
<polygon id="0x321c02e0" class="l34d0" points="73.5,23.4 73.5,28.4 78.5,28.4 78.5,23.4"/>
<polygon id="0x321c03b0" class="l35d0" points="74.7,24.6 74.7,27.2 77.3,27.2 77.3,24.6"/>
<polygon id="0x321c0480" class="l22d0" points="74.2,24.1 74.2,27.7 77.8,27.7 77.8,24.1"/>
<polygon id="0x321c0550" class="l33d0" points="66.9,24.8 66.9,27 69.1,27 69.1,24.8"/>
<polygon id="0x321c0620" class="l36d0" points="65.5,23.4 65.5,28.4 70.5,28.4 70.5,23.4"/>
<polygon id="0x321c06f0" class="l34d0" points="65.5,23.4 65.5,28.4 70.5,28.4 70.5,23.4"/>
<polygon id="0x321c07c0" class="l35d0" points="66.7,24.6 66.7,27.2 69.3,27.2 69.3,24.6"/>
<polygon id="0x321c0890" class="l22d0" points="66.2,24.1 66.2,27.7 69.8,27.7 69.8,24.1"/>
<polygon id="0x321c0960" class="l33d0" points="58.9,24.8 58.9,27 61.1,27 61.1,24.8"/>
<polygon id="0x321c0a30" class="l36d0" points="57.5,23.4 57.5,28.4 62.5,28.4 62.5,23.4"/>
<polygon id="0x321c0b00" class="l34d0" points="57.5,23.4 57.5,28.4 62.5,28.4 62.5,23.4"/>
<polygon id="0x321c0bd0" class="l35d0" points="58.7,24.6 58.7,27.2 61.3,27.2 61.3,24.6"/>
<polygon id="0x321c0ca0" class="l22d0" points="58.2,24.1 58.2,27.7 61.8,27.7 61.8,24.1"/>
<polygon id="0x321c0d70" class="l33d0" points="50.9,24.8 50.9,27 53.1,27 53.1,24.8"/>
<polygon id="0x321c0e40" class="l36d0" points="49.5,23.4 49.5,28.4 54.5,28.4 54.5,23.4"/>
<polygon id="0x321c0f10" class="l34d0" points="49.5,23.4 49.5,28.4 54.5,28.4 54.5,23.4"/>
<polygon id="0x321c0fe0" class="l35d0" points="50.7,24.6 50.7,27.2 53.3,27.2 53.3,24.6"/>
<polygon id="0x321c10b0" class="l22d0" points="50.2,24.1 50.2,27.7 53.8,27.7 53.8,24.1"/>
<polygon id="0x321c1180" class="l33d0" points="42.9,24.8 42.9,27 45.1,27 45.1,24.8"/>
<polygon id="0x321c1250" class="l36d0" points="41.5,23.4 41.5,28.4 46.5,28.4 46.5,23.4"/>
<polygon id="0x321c1320" class="l34d0" points="41.5,23.4 41.5,28.4 46.5,28.4 46.5,23.4"/>
<polygon id="0x321c13f0" class="l35d0" points="42.7,24.6 42.7,27.2 45.3,27.2 45.3,24.6"/>
<polygon id="0x321c14c0" class="l22d0" points="42.2,24.1 42.2,27.7 45.8,27.7 45.8,24.1"/>
<polygon id="0x321c1590" class="l33d0" points="34.9,24.8 34.9,27 37.1,27 37.1,24.8"/>
<polygon id="0x321c1660" class="l36d0" points="33.5,23.4 33.5,28.4 38.5,28.4 38.5,23.4"/>
<polygon id="0x321c1730" class="l34d0" points="33.5,23.4 33.5,28.4 38.5,28.4 38.5,23.4"/>
<polygon id="0x321c1800" class="l35d0" points="34.7,24.6 34.7,27.2 37.3,27.2 37.3,24.6"/>
<polygon id="0x321c18d0" class="l22d0" points="34.2,24.1 34.2,27.7 37.8,27.7 37.8,24.1"/>
<polygon id="0x321c19a0" class="l33d0" points="26.9,24.8 26.9,27 29.1,27 29.1,24.8"/>
<polygon id="0x321c1a70" class="l36d0" points="25.5,23.4 25.5,28.4 30.5,28.4 30.5,23.4"/>
<polygon id="0x321c1b40" class="l34d0" points="25.5,23.4 25.5,28.4 30.5,28.4 30.5,23.4"/>
<polygon id="0x321c1c10" class="l35d0" points="26.7,24.6 26.7,27.2 29.3,27.2 29.3,24.6"/>
<polygon id="0x321c1ce0" class="l22d0" points="26.2,24.1 26.2,27.7 29.8,27.7 29.8,24.1"/>
<polygon id="0x321c1db0" class="l33d0" points="18.9,24.8 18.9,27 21.1,27 21.1,24.8"/>
<polygon id="0x321c1e80" class="l36d0" points="17.5,23.4 17.5,28.4 22.5,28.4 22.5,23.4"/>
<polygon id="0x321c1f50" class="l34d0" points="17.5,23.4 17.5,28.4 22.5,28.4 22.5,23.4"/>
<polygon id="0x321c2020" class="l35d0" points="18.7,24.6 18.7,27.2 21.3,27.2 21.3,24.6"/>
<polygon id="0x321c20f0" class="l22d0" points="18.2,24.1 18.2,27.7 21.8,27.7 21.8,24.1"/>
<polygon id="0x321c21c0" class="l33d0" points="10.9,24.8 10.9,27 13.1,27 13.1,24.8"/>
<polygon id="0x321c2290" class="l36d0" points="9.5,23.4 9.5,28.4 14.5,28.4 14.5,23.4"/>
<polygon id="0x321c2360" class="l34d0" points="9.5,23.4 9.5,28.4 14.5,28.4 14.5,23.4"/>
<polygon id="0x321c2430" class="l35d0" points="10.7,24.6 10.7,27.2 13.3,27.2 13.3,24.6"/>
<polygon id="0x321c2500" class="l22d0" points="10.2,24.1 10.2,27.7 13.8,27.7 13.8,24.1"/>
<polygon id="0x321c25d0" class="l33d0" points="2.9,24.8 2.9,27 5.1,27 5.1,24.8"/>
<polygon id="0x321c26a0" class="l36d0" points="1.5,23.4 1.5,28.4 6.5,28.4 6.5,23.4"/>
<polygon id="0x321c2770" class="l34d0" points="1.5,23.4 1.5,28.4 6.5,28.4 6.5,23.4"/>
<polygon id="0x321c2840" class="l35d0" points="2.7,24.6 2.7,27.2 5.3,27.2 5.3,24.6"/>
<polygon id="0x321c2910" class="l22d0" points="2.2,24.1 2.2,27.7 5.8,27.7 5.8,24.1"/>
<polygon id="0x321c29e0" class="l33d0" points="-5.1,24.8 -5.1,27 -2.9,27 -2.9,24.8"/>
<polygon id="0x321c2ab0" class="l36d0" points="-6.5,23.4 -6.5,28.4 -1.5,28.4 -1.5,23.4"/>
<polygon id="0x321c2b80" class="l34d0" points="-6.5,23.4 -6.5,28.4 -1.5,28.4 -1.5,23.4"/>
<polygon id="0x321c2c50" class="l35d0" points="-5.3,24.6 -5.3,27.2 -2.7,27.2 -2.7,24.6"/>
<polygon id="0x321c2d20" class="l22d0" points="-5.8,24.1 -5.8,27.7 -2.2,27.7 -2.2,24.1"/>
<polygon id="0x321c2df0" class="l33d0" points="-13.1,24.8 -13.1,27 -10.9,27 -10.9,24.8"/>
<polygon id="0x321c2ec0" class="l36d0" points="-14.5,23.4 -14.5,28.4 -9.5,28.4 -9.5,23.4"/>
<polygon id="0x321c2f90" class="l34d0" points="-14.5,23.4 -14.5,28.4 -9.5,28.4 -9.5,23.4"/>
<polygon id="0x321c3060" class="l35d0" points="-13.3,24.6 -13.3,27.2 -10.7,27.2 -10.7,24.6"/>
<polygon id="0x321c3130" class="l22d0" points="-13.8,24.1 -13.8,27.7 -10.2,27.7 -10.2,24.1"/>
<polygon id="0x321c3200" class="l33d0" points="-21.1,24.8 -21.1,27 -18.9,27 -18.9,24.8"/>
<polygon id="0x321c32d0" class="l36d0" points="-22.5,23.4 -22.5,28.4 -17.5,28.4 -17.5,23.4"/>
<polygon id="0x321c33a0" class="l34d0" points="-22.5,23.4 -22.5,28.4 -17.5,28.4 -17.5,23.4"/>
<polygon id="0x321c3470" class="l35d0" points="-21.3,24.6 -21.3,27.2 -18.7,27.2 -18.7,24.6"/>
<polygon id="0x321c3540" class="l22d0" points="-21.8,24.1 -21.8,27.7 -18.2,27.7 -18.2,24.1"/>
<polygon id="0x321c3610" class="l33d0" points="-29.1,24.8 -29.1,27 -26.9,27 -26.9,24.8"/>
<polygon id="0x321c36e0" class="l36d0" points="-30.5,23.4 -30.5,28.4 -25.5,28.4 -25.5,23.4"/>
<polygon id="0x321c37b0" class="l34d0" points="-30.5,23.4 -30.5,28.4 -25.5,28.4 -25.5,23.4"/>
<polygon id="0x321c3880" class="l35d0" points="-29.3,24.6 -29.3,27.2 -26.7,27.2 -26.7,24.6"/>
<polygon id="0x321c3950" class="l22d0" points="-29.8,24.1 -29.8,27.7 -26.2,27.7 -26.2,24.1"/>
<polygon id="0x321c3a20" class="l33d0" points="-37.1,24.8 -37.1,27 -34.9,27 -34.9,24.8"/>
<polygon id="0x321c3af0" class="l36d0" points="-38.5,23.4 -38.5,28.4 -33.5,28.4 -33.5,23.4"/>
<polygon id="0x321c3bc0" class="l34d0" points="-38.5,23.4 -38.5,28.4 -33.5,28.4 -33.5,23.4"/>
<polygon id="0x321c3c90" class="l35d0" points="-37.3,24.6 -37.3,27.2 -34.7,27.2 -34.7,24.6"/>
<polygon id="0x321c3d60" class="l22d0" points="-37.8,24.1 -37.8,27.7 -34.2,27.7 -34.2,24.1"/>
<polygon id="0x321c3e30" class="l33d0" points="-45.1,24.8 -45.1,27 -42.9,27 -42.9,24.8"/>
<polygon id="0x321c3f00" class="l36d0" points="-46.5,23.4 -46.5,28.4 -41.5,28.4 -41.5,23.4"/>
<polygon id="0x321c3fd0" class="l34d0" points="-46.5,23.4 -46.5,28.4 -41.5,28.4 -41.5,23.4"/>
<polygon id="0x321c40a0" class="l35d0" points="-45.3,24.6 -45.3,27.2 -42.7,27.2 -42.7,24.6"/>
<polygon id="0x321c4170" class="l22d0" points="-45.8,24.1 -45.8,27.7 -42.2,27.7 -42.2,24.1"/>
<polygon id="0x321c4240" class="l33d0" points="-53.1,24.8 -53.1,27 -50.9,27 -50.9,24.8"/>
<polygon id="0x321c4310" class="l36d0" points="-54.5,23.4 -54.5,28.4 -49.5,28.4 -49.5,23.4"/>
<polygon id="0x321c43e0" class="l34d0" points="-54.5,23.4 -54.5,28.4 -49.5,28.4 -49.5,23.4"/>
<polygon id="0x321c44b0" class="l35d0" points="-53.3,24.6 -53.3,27.2 -50.7,27.2 -50.7,24.6"/>
<polygon id="0x321c4580" class="l22d0" points="-53.8,24.1 -53.8,27.7 -50.2,27.7 -50.2,24.1"/>
<polygon id="0x321c4650" class="l33d0" points="-61.1,24.8 -61.1,27 -58.9,27 -58.9,24.8"/>
<polygon id="0x321c4720" class="l36d0" points="-62.5,23.4 -62.5,28.4 -57.5,28.4 -57.5,23.4"/>
<polygon id="0x321c47f0" class="l34d0" points="-62.5,23.4 -62.5,28.4 -57.5,28.4 -57.5,23.4"/>
<polygon id="0x321c48c0" class="l35d0" points="-61.3,24.6 -61.3,27.2 -58.7,27.2 -58.7,24.6"/>
<polygon id="0x321c4990" class="l22d0" points="-61.8,24.1 -61.8,27.7 -58.2,27.7 -58.2,24.1"/>
<polygon id="0x321c4a60" class="l33d0" points="-69.1,24.8 -69.1,27 -66.9,27 -66.9,24.8"/>
<polygon id="0x321c4b30" class="l36d0" points="-70.5,23.4 -70.5,28.4 -65.5,28.4 -65.5,23.4"/>
<polygon id="0x321c4c00" class="l34d0" points="-70.5,23.4 -70.5,28.4 -65.5,28.4 -65.5,23.4"/>
<polygon id="0x321c4cd0" class="l35d0" points="-69.3,24.6 -69.3,27.2 -66.7,27.2 -66.7,24.6"/>
<polygon id="0x321c4da0" class="l22d0" points="-69.8,24.1 -69.8,27.7 -66.2,27.7 -66.2,24.1"/>
<polygon id="0x321c4e70" class="l34d0" points="-78.5,23.4 -78.5,28.4 78.5,28.4 78.5,23.4"/>
<polygon id="0x321c4f40" class="l36d0" points="-85.9,23.4 -85.9,28.4 85.9,28.4 85.9,23.4"/>
<polygon id="0x321c5010" class="l22d0" points="-77.8,24.1 -77.8,27.7 77.8,27.7 77.8,24.1"/>
<polygon id="0x321c50e0" class="l31d0" points="91.1,29.3 -91.1,29.3 -91.1,-22.5 -84.3,-22.5 -84.3,22.5 84.3,22.5 84.3,-22.5 -84.3,-22.5 -91.1,-22.5 -91.1,-29.3 91.1,-29.3"/>
</g>
</svg>
